<?xml version="1.0" standalone="no"?>
<!DOCTYPE svg PUBLIC "-//W3C//DTD SVG 20010904//EN"
 "http://www.w3.org/TR/2001/REC-SVG-20010904/DTD/svg10.dtd">
<svg version="1.0" xmlns="http://www.w3.org/2000/svg"
 width="2320.000000pt" height="1256.000000pt" viewBox="0 0 2320.000000 1256.000000"
 preserveAspectRatio="xMidYMid meet">

<g transform="translate(0.000000,1256.000000) scale(0.100000,-0.100000)"
fill="#000000" stroke="none">
<path d="M980 12115 l0 -155 25 0 c25 0 25 1 25 79 0 85 10 105 52 99 22 -3
23 -8 26 -90 3 -86 3 -88 27 -88 25 0 25 1 25 88 0 63 -4 94 -16 110 -20 29
-67 29 -94 0 l-20 -22 0 67 c0 65 -1 67 -25 67 l-25 0 0 -155z"/>
<path d="M1237 12263 c-13 -12 -7 -41 10 -47 21 -9 46 16 37 37 -6 17 -35 23
-47 10z"/>
<path d="M1610 12116 l0 -156 25 0 c23 0 25 4 23 35 -1 22 4 41 14 51 14 15
18 12 43 -35 24 -43 33 -51 57 -51 15 0 28 2 28 5 0 2 -18 32 -39 66 l-40 62
35 41 c35 40 35 41 12 45 -17 2 -34 -9 -65 -43 -22 -25 -43 -46 -45 -46 -1 0
-3 39 -3 87 0 84 -1 88 -22 91 l-23 3 0 -155z"/>
<path d="M7300 12208 c0 -59 -1 -60 -18 -45 -27 24 -69 21 -97 -8 -34 -33 -36
-128 -4 -169 24 -31 72 -35 101 -9 17 15 18 15 18 0 0 -11 8 -17 25 -17 l25 0
0 155 0 155 -25 0 c-24 0 -25 -3 -25 -62z m-12 -77 c9 -5 12 -26 10 -67 -3
-56 -4 -59 -31 -62 -16 -2 -35 2 -43 9 -17 14 -19 100 -2 117 14 14 47 16 66
3z"/>
<path d="M13110 12126 c0 -133 2 -146 19 -156 31 -16 51 -12 51 10 0 11 -4 20
-10 20 -5 0 -11 55 -12 133 -3 128 -4 132 -25 135 -23 3 -23 3 -23 -142z"/>
<path d="M13233 12254 c-3 -8 2 -23 11 -32 15 -15 17 -15 32 0 21 21 11 48
-16 48 -11 0 -23 -7 -27 -16z"/>
<path d="M6734 12249 c-43 -12 -75 -51 -84 -101 -20 -105 29 -188 111 -188 69
0 129 48 93 75 -14 9 -21 7 -40 -12 -30 -30 -59 -29 -89 2 -21 20 -25 34 -25
83 0 48 4 62 23 80 30 28 71 28 90 1 13 -17 19 -19 36 -9 17 9 19 15 11 30
-19 35 -76 53 -126 39z"/>
<path d="M710 12231 c0 -16 8 -20 43 -23 l42 -3 3 -122 3 -123 24 0 25 0 0
125 0 125 40 0 c33 0 40 3 40 20 0 19 -7 20 -110 20 -102 0 -110 -1 -110 -19z"/>
<path d="M12580 12106 l0 -146 60 0 c114 0 161 42 161 143 0 109 -30 140 -142
146 l-79 3 0 -146z m152 74 c12 -15 18 -40 18 -76 0 -68 -22 -94 -80 -94 l-40
0 0 101 0 102 42 -6 c27 -4 49 -14 60 -27z"/>
<path d="M18500 12105 c0 -138 1 -145 20 -145 19 0 20 7 21 98 1 53 1 100 0
105 -3 20 11 0 49 -70 l43 -77 41 79 41 80 3 -107 c3 -107 3 -108 27 -108 l25
0 0 145 0 145 -29 0 c-26 0 -34 -8 -69 -71 l-39 -71 -39 71 c-33 62 -42 71
-66 71 l-28 0 0 -145z"/>
<path d="M19700 12200 c-12 -12 -33 -20 -54 -20 -65 0 -105 -64 -68 -110 19
-24 19 -24 -1 -41 -20 -15 -20 -18 -6 -40 15 -21 14 -24 -4 -39 -31 -25 -15
-57 35 -71 77 -20 158 10 158 59 0 47 -14 57 -87 62 -52 4 -68 9 -68 20 0 10
14 17 47 20 26 3 56 14 67 24 24 22 28 68 6 86 -21 17 -19 30 5 30 13 0 20 7
20 20 0 11 -7 20 -15 20 -8 0 -24 -9 -35 -20z m-26 -56 c10 -4 16 -18 16 -35
0 -22 -6 -30 -25 -35 -43 -11 -73 34 -43 64 13 13 28 15 52 6z m36 -199 c20
-24 2 -35 -55 -35 -55 0 -71 9 -61 35 7 20 99 20 116 0z"/>
<path d="M1230 12070 l0 -110 25 0 25 0 0 110 0 110 -25 0 -25 0 0 -110z"/>
<path d="M1350 12070 l0 -110 25 0 c24 0 25 2 25 71 0 82 11 109 45 109 34 0
45 -27 45 -109 0 -70 0 -71 26 -71 l26 0 -4 90 c-3 68 -8 94 -23 110 -24 26
-63 26 -92 -2 l-23 -21 0 21 c0 17 -6 22 -25 22 l-25 0 0 -110z"/>
<path d="M6965 12168 c-58 -33 -65 -139 -13 -188 34 -31 93 -27 129 9 25 25
29 37 29 81 0 44 -4 56 -29 81 -32 31 -79 38 -116 17z m83 -40 c7 -7 12 -33
12 -58 0 -50 -13 -70 -45 -70 -32 0 -45 20 -45 70 0 50 13 70 45 70 12 0 26
-5 33 -12z"/>
<path d="M7448 12157 c-14 -13 -29 -38 -32 -55 -10 -43 10 -107 39 -126 33
-21 97 -21 125 2 20 16 21 19 6 31 -13 11 -20 11 -28 3 -28 -28 -98 -4 -98 34
0 11 17 14 75 14 61 0 75 3 75 15 0 29 -28 83 -48 94 -35 19 -87 13 -114 -12z
m92 -27 c31 -31 24 -40 -30 -40 -27 0 -50 5 -50 10 0 13 37 50 50 50 6 0 19
-9 30 -20z"/>
<path d="M12905 12168 c-58 -33 -65 -139 -13 -188 28 -26 97 -27 127 -2 28 23
14 50 -17 33 -44 -24 -92 -8 -92 31 0 16 9 18 71 18 l72 0 -6 38 c-11 67 -84
103 -142 70z m93 -62 c3 -13 -5 -16 -42 -16 -40 0 -46 3 -46 20 0 44 79 41 88
-4z"/>
<path d="M13240 12071 l0 -111 25 0 26 0 -3 108 c-3 102 -4 107 -25 110 -23 3
-23 2 -23 -107z"/>
<path d="M13332 12168 c3 -7 20 -57 38 -111 32 -98 32 -98 63 -95 29 3 32 7
64 103 18 54 33 103 33 108 0 5 -10 7 -22 5 -19 -2 -26 -17 -45 -82 -12 -43
-24 -81 -27 -83 -2 -3 -16 34 -30 81 -24 79 -29 86 -52 86 -17 0 -24 -5 -22
-12z"/>
<path d="M13602 12160 c-29 -28 -43 -82 -31 -125 14 -51 45 -75 95 -75 48 0
89 27 75 49 -6 10 -13 11 -29 2 -44 -24 -92 -8 -92 31 0 16 9 18 70 18 64 0
70 2 70 20 0 29 -27 78 -49 90 -32 17 -85 12 -109 -10z m106 -54 c3 -13 -5
-16 -42 -16 -45 0 -56 10 -38 36 19 29 73 16 80 -20z"/>
<path d="M13820 12069 c0 -109 0 -110 23 -107 20 3 22 8 24 77 2 78 9 91 51
91 17 0 22 6 22 26 0 22 -3 24 -22 19 -13 -4 -28 -13 -34 -21 -10 -12 -12 -11
-17 6 -3 12 -13 20 -26 20 -20 0 -21 -5 -21 -111z"/>
<path d="M18859 12161 c-19 -16 -22 -22 -11 -32 9 -10 15 -10 24 -1 19 19 66
15 78 -8 16 -30 4 -40 -45 -40 -51 0 -75 -19 -75 -60 0 -16 7 -36 16 -44 18
-19 75 -21 92 -4 19 19 14 31 -9 25 -31 -8 -49 2 -49 29 0 17 7 25 25 30 37 9
58 -2 52 -27 -8 -30 20 -69 49 -69 17 0 24 6 24 20 0 11 -4 20 -9 20 -4 0 -11
32 -13 72 -5 59 -10 75 -28 90 -30 24 -91 23 -121 -1z"/>
<path d="M19080 12070 l0 -110 25 0 c25 0 25 1 25 79 0 85 10 105 52 99 22 -3
23 -8 26 -90 3 -86 3 -88 27 -88 25 0 25 1 25 88 0 63 -4 94 -16 110 -20 29
-67 29 -94 0 l-20 -22 0 22 c0 17 -6 22 -25 22 l-25 0 0 -110z"/>
<path d="M19349 12160 c-31 -26 -11 -43 32 -26 35 13 64 -1 64 -30 0 -15 -9
-20 -46 -24 -26 -3 -54 -12 -63 -19 -20 -17 -21 -65 0 -85 20 -21 73 -20 95 0
17 15 19 15 34 0 23 -23 55 -21 55 4 0 11 -4 20 -9 20 -5 0 -11 32 -13 71 -3
60 -8 74 -27 90 -31 25 -92 25 -122 -1z m101 -125 c0 -28 -31 -49 -60 -40 -43
14 -14 64 38 65 17 0 22 -6 22 -25z"/>
<path d="M19837 12169 c-43 -25 -60 -106 -32 -159 27 -51 86 -65 147 -34 28
15 29 17 14 32 -12 13 -18 13 -28 4 -20 -20 -76 -15 -88 7 -19 37 -12 41 66
41 65 0 75 2 70 16 -3 9 -6 24 -6 33 0 10 -12 30 -26 45 -28 28 -83 35 -117
15z m74 -29 c10 -6 19 -20 19 -30 0 -17 -7 -20 -45 -20 -51 0 -60 18 -23 44
27 19 24 19 49 6z"/>
<path d="M7392 11293 c670 -2 1766 -2 2435 0 670 1 122 2 -1217 2 -1339 0
-1887 -1 -1218 -2z"/>
<path d="M12060 11240 l0 -60 2480 0 2480 0 0 60 0 60 -2480 0 -2480 0 0 -60z"/>
<path d="M11093 11230 c0 -30 2 -43 4 -27 2 15 2 39 0 55 -2 15 -4 2 -4 -28z"/>
<path d="M6142 11230 c0 -19 2 -27 5 -17 2 9 2 25 0 35 -3 9 -5 1 -5 -18z"/>
<path d="M7403 11183 c670 -2 1764 -2 2430 0 667 1 119 2 -1218 2 -1337 0
-1882 -1 -1212 -2z"/>
<path d="M1081 10649 c-131 -26 -274 -138 -332 -263 -85 -182 -52 -391 86
-535 59 -62 156 -121 199 -121 25 0 26 3 26 50 l0 50 -42 0 c-59 0 -88 17
-125 75 -18 27 -39 53 -48 57 -23 14 -18 28 11 28 18 0 39 -14 68 -44 64 -69
120 -73 149 -11 l16 33 -37 7 c-44 8 -101 37 -124 62 -51 56 -68 188 -32 253
12 22 19 56 20 90 0 31 4 61 8 68 11 18 46 14 95 -11 39 -20 50 -22 102 -13
38 6 80 6 119 0 53 -9 63 -8 102 13 24 12 55 22 70 23 23 0 27 -5 33 -40 4
-21 4 -48 0 -59 -3 -11 4 -37 17 -63 18 -33 23 -59 22 -108 -1 -113 -56 -186
-159 -212 -50 -13 -50 -14 -38 -38 8 -15 13 -63 13 -117 l0 -93 26 0 c80 0
232 130 285 245 168 357 -142 750 -530 674z"/>
<path d="M7001 10649 c-131 -26 -274 -138 -332 -263 -85 -182 -52 -391 86
-535 59 -62 156 -121 199 -121 25 0 26 3 26 50 l0 50 -42 0 c-59 0 -88 17
-125 75 -18 27 -39 53 -48 57 -23 14 -18 28 11 28 18 0 39 -14 68 -44 64 -69
120 -73 149 -11 l16 33 -37 7 c-44 8 -101 37 -124 62 -51 56 -68 188 -32 253
12 22 19 56 20 90 0 31 4 61 8 68 11 18 46 14 95 -11 39 -20 50 -22 102 -13
38 6 80 6 119 0 53 -9 63 -8 102 13 24 12 55 22 70 23 23 0 27 -5 33 -40 4
-21 4 -48 0 -59 -3 -11 4 -37 17 -63 18 -33 23 -59 22 -108 -1 -113 -56 -186
-159 -212 -50 -13 -50 -14 -38 -38 8 -15 13 -63 13 -117 l0 -93 26 0 c80 0
232 130 285 245 168 357 -142 750 -530 674z"/>
<path d="M4454 10616 c-10 -26 4 -48 28 -44 17 2 23 10 23 28 0 18 -6 26 -23
28 -13 2 -25 -3 -28 -12z"/>
<path d="M10374 10616 c-10 -26 4 -48 28 -44 17 2 23 10 23 28 0 18 -6 26 -23
28 -13 2 -25 -3 -28 -12z"/>
<path d="M16294 10616 c-10 -26 4 -48 28 -44 17 2 23 10 23 28 0 18 -6 26 -23
28 -13 2 -25 -3 -28 -12z"/>
<path d="M22214 10616 c-10 -26 4 -48 28 -44 17 2 23 10 23 28 0 18 -6 26 -23
28 -13 2 -25 -3 -28 -12z"/>
<path d="M18562 10558 c-14 -14 -16 -117 -2 -119 6 -1 16 -2 23 -3 8 -1 12
-23 12 -76 0 -53 -4 -75 -12 -76 -7 -1 -17 -2 -23 -3 -6 0 -10 -42 -10 -100 0
-96 1 -100 22 -103 21 -3 23 -8 23 -75 0 -67 -1 -72 -22 -78 -20 -5 -23 -12
-23 -55 0 -91 -28 -85 388 -82 247 2 370 6 379 13 17 14 19 324 2 334 -24 15
-57 -5 -63 -38 -9 -49 -59 -122 -107 -157 -163 -117 -389 -49 -460 139 -37 99
-13 220 60 304 82 92 237 121 353 64 67 -33 120 -91 144 -156 23 -62 30 -69
59 -63 l25 4 0 157 c0 109 -4 161 -12 169 -9 9 -107 12 -378 12 -271 0 -369
-3 -378 -12z"/>
<path d="M4454 10476 c-10 -26 4 -48 28 -44 17 2 23 10 23 28 0 18 -6 26 -23
28 -13 2 -25 -3 -28 -12z"/>
<path d="M10374 10476 c-10 -26 4 -48 28 -44 17 2 23 10 23 28 0 18 -6 26 -23
28 -13 2 -25 -3 -28 -12z"/>
<path d="M16294 10476 c-10 -26 4 -48 28 -44 17 2 23 10 23 28 0 18 -6 26 -23
28 -13 2 -25 -3 -28 -12z"/>
<path d="M22214 10476 c-10 -26 4 -48 28 -44 17 2 23 10 23 28 0 18 -6 26 -23
28 -13 2 -25 -3 -28 -12z"/>
<path d="M4454 10336 c-10 -26 4 -48 28 -44 17 2 23 10 23 28 0 18 -6 26 -23
28 -13 2 -25 -3 -28 -12z"/>
<path d="M10374 10336 c-10 -26 4 -48 28 -44 17 2 23 10 23 28 0 18 -6 26 -23
28 -13 2 -25 -3 -28 -12z"/>
<path d="M16294 10336 c-10 -26 4 -48 28 -44 17 2 23 10 23 28 0 18 -6 26 -23
28 -13 2 -25 -3 -28 -12z"/>
<path d="M22214 10336 c-10 -26 4 -48 28 -44 17 2 23 10 23 28 0 18 -6 26 -23
28 -13 2 -25 -3 -28 -12z"/>
<path d="M18905 10245 c-19 -18 -25 -35 -25 -65 0 -55 34 -90 87 -90 50 0 81
22 89 64 9 49 -2 76 -31 76 -14 0 -29 9 -35 20 -15 28 -56 25 -85 -5z"/>
<path d="M6923 9294 c-3 -8 2 -23 11 -32 14 -15 18 -15 31 -1 9 9 13 23 9 32
-8 21 -43 22 -51 1z"/>
<path d="M7677 9303 c-4 -3 -7 -69 -7 -145 l0 -138 25 0 c17 0 25 6 25 17 0
15 1 15 18 0 25 -23 75 -21 97 3 23 25 31 101 15 139 -17 41 -70 60 -105 37
l-25 -16 0 55 c0 47 -3 55 -18 55 -10 0 -22 -3 -25 -7z m117 -129 c19 -18 21
-85 4 -102 -7 -7 -21 -12 -33 -12 -31 0 -45 19 -45 61 0 38 20 69 45 69 7 0
21 -7 29 -16z"/>
<path d="M13050 9177 c0 -144 4 -157 52 -157 21 0 28 5 28 20 0 11 -7 20 -15
20 -13 0 -15 21 -15 125 l0 125 -25 0 -25 0 0 -133z"/>
<path d="M13167 9303 c-13 -12 -7 -41 9 -47 22 -9 34 1 34 30 0 17 -6 24 -18
24 -10 0 -22 -3 -25 -7z"/>
<path d="M14370 9286 c0 -29 11 -39 35 -30 24 10 15 48 -12 52 -19 3 -23 -1
-23 -22z"/>
<path d="M14920 9177 c0 -144 4 -157 52 -157 30 0 40 26 13 36 -12 5 -15 29
-15 130 l0 124 -25 0 -25 0 0 -133z"/>
<path d="M15037 9303 c-13 -12 -7 -41 9 -47 22 -9 34 1 34 30 0 17 -6 24 -18
24 -10 0 -22 -3 -25 -7z"/>
<path d="M6710 9282 c-83 -41 -94 -193 -19 -246 30 -20 88 -21 117 0 20 14 22
14 22 0 0 -9 9 -16 20 -16 18 0 20 7 20 75 l0 75 -50 0 c-43 0 -50 -3 -50 -20
0 -15 7 -20 25 -20 18 0 25 -5 25 -19 0 -47 -59 -66 -101 -32 -19 15 -23 28
-23 74 0 40 5 61 18 76 24 27 64 27 91 1 19 -18 24 -18 40 -6 19 14 19 15 1
35 -11 12 -35 25 -55 31 -45 13 -40 13 -81 -8z"/>
<path d="M18544 9289 c-36 -10 -51 -25 -54 -54 -6 -58 11 -80 75 -96 55 -14
70 -30 55 -58 -13 -25 -56 -28 -88 -5 -18 12 -26 13 -37 4 -21 -17 -19 -23 14
-43 34 -20 109 -22 134 -3 26 20 40 68 28 98 -9 24 -26 33 -96 54 -23 7 -30
15 -30 34 0 20 6 26 27 28 15 2 37 -2 48 -8 16 -9 25 -8 36 1 18 15 18 22 -4
35 -28 18 -74 23 -108 13z"/>
<path d="M720 9270 c0 -13 7 -20 20 -20 19 0 20 -7 20 -95 0 -88 -1 -95 -20
-95 -13 0 -20 -7 -20 -20 0 -18 7 -20 60 -20 53 0 60 2 60 20 0 11 -7 20 -15
20 -12 0 -15 17 -15 95 0 78 3 95 15 95 8 0 15 9 15 20 0 18 -7 20 -60 20 -53
0 -60 -2 -60 -20z"/>
<path d="M7173 9155 l2 -135 27 0 c27 0 28 1 28 60 l0 60 55 0 55 0 0 -60 c0
-57 1 -60 25 -60 l25 0 0 135 0 135 -25 0 c-24 0 -25 -3 -25 -55 l0 -55 -55 0
-55 0 0 55 c0 54 0 55 -29 55 l-29 0 1 -135z"/>
<path d="M12570 9155 l0 -135 60 0 c85 0 123 18 143 69 20 48 21 72 6 124 -15
55 -56 77 -141 77 l-68 0 0 -135z m146 74 c17 -14 19 -111 4 -140 -8 -14 -21
-19 -55 -19 l-45 0 0 83 c0 46 3 87 8 91 9 10 70 0 88 -15z"/>
<path d="M14120 9155 l0 -135 30 0 c29 0 30 1 30 49 l0 48 51 6 c79 10 110 49
88 114 -14 45 -34 53 -123 53 l-76 0 0 -135z m138 86 c8 -5 12 -21 10 -37 -3
-26 -7 -29 -45 -32 l-43 -3 0 40 c0 40 1 41 33 41 17 0 38 -4 45 -9z"/>
<path d="M19922 9174 c-3 -132 1 -154 28 -154 17 0 20 9 22 98 l3 97 35 -67
c19 -38 38 -68 42 -68 4 0 23 30 42 68 l35 67 1 -97 c0 -98 0 -98 25 -98 l25
0 0 135 0 135 -30 0 c-27 0 -33 -7 -64 -67 l-34 -68 -33 68 c-30 61 -36 67
-64 67 l-30 0 -3 -116z"/>
<path d="M7050 9260 c0 -11 -9 -25 -20 -32 -23 -15 -27 -48 -5 -48 12 0 15
-14 15 -64 0 -74 14 -96 61 -96 22 0 29 5 29 20 0 13 -7 20 -20 20 -18 0 -20
7 -20 60 0 53 2 60 20 60 13 0 20 7 20 20 0 13 -7 20 -20 20 -16 0 -20 7 -20
30 0 23 -4 30 -20 30 -13 0 -20 -7 -20 -20z"/>
<path d="M19520 9260 c0 -11 -9 -25 -20 -32 -23 -15 -27 -48 -5 -48 12 0 15
-14 15 -64 0 -74 14 -96 61 -96 22 0 29 5 29 20 0 13 -7 20 -20 20 -18 0 -20
7 -20 60 0 53 2 60 20 60 13 0 20 7 20 20 0 13 -7 20 -20 20 -16 0 -20 7 -20
30 0 23 -4 30 -20 30 -13 0 -20 -7 -20 -20z"/>
<path d="M21013 9247 c-4 -8 -25 -17 -47 -20 -21 -3 -47 -14 -57 -23 -23 -20
-25 -67 -4 -87 13 -13 13 -16 0 -27 -18 -15 -20 -46 -4 -56 8 -5 6 -10 -5 -16
-22 -12 -20 -55 3 -68 11 -5 45 -10 76 -10 46 0 60 4 81 25 18 19 23 31 19 48
-11 35 -35 47 -92 47 -40 0 -53 4 -53 15 0 10 10 15 30 15 69 0 104 43 82 102
-9 25 -8 28 9 28 12 0 19 7 19 20 0 15 -7 20 -25 20 -13 0 -28 -6 -32 -13z
m-4 -81 c4 -24 -23 -46 -49 -39 -22 6 -32 26 -23 49 8 23 67 15 72 -10z m18
-162 c8 -23 -15 -35 -62 -32 -33 3 -41 7 -43 26 -3 20 0 22 48 22 37 0 52 -4
57 -16z"/>
<path d="M921 9218 c-33 -18 -45 -40 -37 -71 5 -21 16 -29 54 -40 48 -14 66
-39 36 -51 -9 -3 -30 1 -47 9 -24 12 -33 12 -45 3 -23 -20 21 -48 74 -48 47 0
84 27 84 62 0 25 -35 58 -62 58 -32 0 -52 15 -45 34 7 18 30 21 57 6 13 -7 21
-6 29 4 24 29 -55 56 -98 34z"/>
<path d="M1111 9218 c-33 -18 -45 -40 -37 -72 5 -21 16 -29 52 -39 47 -12 67
-33 44 -47 -14 -9 -49 -2 -67 13 -9 6 -18 5 -29 -4 -15 -12 -14 -15 6 -31 32
-26 103 -24 130 4 11 12 20 30 20 40 0 25 -35 58 -62 58 -32 0 -52 15 -45 34
7 18 30 21 57 6 13 -7 21 -6 29 4 24 29 -55 56 -98 34z"/>
<path d="M1545 9221 c-67 -28 -81 -145 -22 -186 47 -33 158 -7 127 30 -9 11
-16 12 -26 4 -22 -18 -76 -7 -85 19 -8 21 -7 22 61 22 64 0 70 2 70 20 0 33
-26 75 -55 88 -30 14 -42 14 -70 3z m65 -50 c15 -29 14 -31 -35 -31 -38 0 -43
2 -38 18 14 36 56 44 73 13z"/>
<path d="M1740 9217 c-13 -7 -29 -25 -34 -39 -12 -35 12 -65 61 -74 36 -7 55
-31 33 -44 -13 -8 -48 -2 -66 12 -7 5 -16 2 -24 -7 -34 -41 91 -64 131 -24 42
42 13 88 -64 104 -20 4 -27 11 -25 23 3 16 21 19 73 10 30 -5 30 26 0 40 -33
15 -54 15 -85 -1z"/>
<path d="M12874 9216 c-58 -25 -70 -122 -22 -173 16 -17 33 -23 63 -23 50 0
91 25 74 46 -8 10 -16 11 -29 4 -40 -21 -90 -6 -90 27 0 9 19 13 70 13 39 0
70 3 70 8 0 34 -24 80 -49 95 -35 20 -46 21 -87 3z m77 -53 c8 -22 6 -23 -36
-23 -49 0 -50 1 -34 31 14 27 59 22 70 -8z"/>
<path d="M13504 9216 c-58 -25 -70 -122 -22 -173 16 -17 33 -23 63 -23 50 0
91 25 74 46 -8 10 -16 11 -29 4 -40 -21 -90 -6 -90 27 0 9 19 13 70 13 39 0
70 3 70 8 0 34 -24 80 -49 95 -35 20 -46 21 -87 3z m77 -53 c8 -22 6 -23 -36
-23 -49 0 -50 1 -34 31 14 27 59 22 70 -8z"/>
<path d="M14542 9214 c-12 -8 -22 -10 -22 -5 0 6 -11 11 -25 11 l-26 0 3 -137
c3 -135 4 -138 26 -141 21 -3 22 0 22 54 0 55 1 56 18 41 25 -23 75 -21 97 3
22 25 31 101 15 139 -7 18 -24 34 -42 40 -39 14 -39 14 -66 -5z m52 -40 c19
-18 21 -85 4 -102 -7 -7 -21 -12 -33 -12 -31 0 -45 19 -45 61 0 38 20 69 45
69 7 0 21 -7 29 -16z"/>
<path d="M14744 9216 c-58 -25 -70 -122 -22 -173 16 -17 33 -23 63 -23 50 0
91 25 74 46 -8 10 -16 11 -29 4 -40 -21 -90 -6 -90 27 0 9 19 13 70 13 39 0
70 3 70 8 0 34 -24 80 -49 95 -35 20 -46 21 -87 3z m77 -53 c8 -22 6 -23 -36
-23 -49 0 -50 1 -34 31 14 27 59 22 70 -8z"/>
<path d="M15212 9214 c-12 -8 -22 -10 -22 -5 0 6 -11 11 -25 11 l-25 0 0 -100
0 -100 25 0 c25 0 25 1 25 79 0 71 2 80 20 86 37 12 50 -11 50 -91 0 -72 1
-74 25 -74 25 0 25 1 25 80 0 73 -3 83 -25 105 -28 29 -42 31 -73 9z"/>
<path d="M15410 9219 c-70 -27 -82 -139 -21 -186 34 -26 131 -10 131 22 0 20
-20 29 -33 16 -25 -25 -87 -7 -87 26 0 9 18 13 65 13 l65 0 0 31 c0 20 -10 40
-29 60 -31 30 -50 34 -91 18z m58 -41 c24 -24 13 -38 -28 -38 -26 0 -40 5 -40
13 0 18 21 37 40 37 9 0 21 -5 28 -12z"/>
<path d="M18764 9216 c-58 -25 -70 -122 -22 -173 16 -17 33 -23 63 -23 50 0
91 25 74 46 -8 10 -16 11 -29 4 -41 -22 -90 -3 -90 34 0 3 32 6 70 6 39 0 70
3 70 8 0 34 -24 80 -49 95 -35 20 -46 21 -87 3z m77 -53 c8 -22 6 -23 -36 -23
-49 0 -50 1 -34 31 14 27 59 22 70 -8z"/>
<path d="M18984 9220 c-35 -14 -54 -50 -54 -103 0 -38 5 -53 25 -72 32 -33 96
-34 127 -3 20 20 21 21 2 35 -16 12 -20 11 -31 -2 -7 -10 -22 -15 -40 -13 -26
3 -28 7 -31 51 -2 27 2 55 9 63 15 19 46 18 57 -1 9 -18 42 -10 42 10 0 30
-66 52 -106 35z"/>
<path d="M19324 9216 c-58 -25 -70 -122 -22 -173 16 -17 33 -23 63 -23 50 0
91 25 74 46 -8 10 -16 11 -29 4 -41 -22 -90 -3 -90 34 0 3 32 6 70 6 39 0 70
3 70 8 0 34 -24 80 -49 95 -35 20 -46 21 -87 3z m77 -53 c8 -22 6 -23 -36 -23
-49 0 -50 1 -34 31 14 27 59 22 70 -8z"/>
<path d="M19670 9217 c-13 -7 -29 -25 -34 -39 -12 -35 12 -65 61 -74 36 -7 55
-31 33 -44 -13 -8 -48 -2 -66 12 -7 5 -16 2 -24 -7 -34 -41 91 -64 131 -24 42
42 13 88 -64 104 -20 4 -27 11 -25 23 3 16 21 19 73 10 30 -5 30 26 0 40 -33
15 -54 15 -85 -1z"/>
<path d="M20256 9209 c-23 -18 -25 -23 -13 -31 9 -5 26 -4 41 3 31 14 56 6 56
-19 0 -14 -11 -21 -47 -28 -35 -7 -51 -16 -62 -35 -13 -24 -13 -29 2 -53 20
-30 76 -36 97 -11 12 14 15 14 30 0 24 -22 50 -19 50 5 0 11 -4 20 -10 20 -6
0 -10 28 -10 63 0 73 -15 94 -71 103 -26 4 -41 0 -63 -17z m84 -123 c0 -31
-35 -45 -58 -23 -13 13 -13 19 -2 31 7 9 23 16 36 16 19 0 24 -5 24 -24z"/>
<path d="M20520 9210 c-16 -16 -20 -17 -20 -5 0 9 -9 15 -25 15 l-25 0 0 -100
0 -100 25 0 c24 0 25 2 25 75 0 71 2 76 25 87 38 17 49 -1 53 -87 4 -66 7 -75
23 -75 17 0 19 8 19 85 0 72 -3 88 -20 105 -11 11 -29 20 -40 20 -11 0 -29 -9
-40 -20z"/>
<path d="M20714 9220 c-53 -21 -38 -57 15 -37 29 11 34 10 47 -7 21 -29 18
-33 -32 -40 -26 -3 -53 -11 -60 -17 -17 -14 -18 -71 -2 -87 19 -19 85 -15 98
6 10 16 10 16 20 0 16 -26 60 -24 60 2 0 11 -4 20 -10 20 -5 0 -10 20 -10 44
0 66 -17 103 -52 115 -36 13 -45 13 -74 1z m76 -130 c0 -22 -34 -44 -56 -36
-14 6 -19 37 -7 49 3 4 19 7 35 7 21 0 28 -5 28 -20z"/>
<path d="M21153 9223 c-69 -13 -85 -143 -24 -190 34 -26 131 -10 131 22 0 20
-20 29 -33 16 -25 -25 -87 -7 -87 26 0 9 18 13 65 13 l65 0 0 31 c0 20 -10 40
-29 60 -29 28 -41 31 -88 22z m55 -45 c24 -24 13 -38 -28 -38 -26 0 -40 5 -40
13 0 18 21 37 40 37 9 0 21 -5 28 -12z"/>
<path d="M1270 9137 c0 -69 3 -87 18 -100 25 -23 78 -22 91 1 10 16 10 16 11
0 0 -12 8 -18 25 -18 l25 0 0 100 c0 100 0 100 -25 100 -23 0 -24 -3 -27 -77
l-3 -78 -30 0 -30 0 -3 78 c-3 74 -4 77 -27 77 -25 0 -25 -1 -25 -83z"/>
<path d="M6920 9120 l0 -100 25 0 25 0 0 100 0 100 -25 0 -25 0 0 -100z"/>
<path d="M7450 9137 c0 -69 3 -87 18 -100 25 -23 78 -22 91 1 10 16 10 16 11
0 0 -12 8 -18 25 -18 l25 0 0 100 c0 100 0 100 -25 100 -23 0 -24 -3 -27 -77
l-3 -78 -30 0 -30 0 -3 78 c-3 74 -4 77 -27 77 -25 0 -25 -1 -25 -83z"/>
<path d="M13160 9120 l0 -100 25 0 25 0 0 100 0 100 -25 0 -25 0 0 -100z"/>
<path d="M13250 9213 c0 -4 14 -50 31 -100 29 -88 32 -93 59 -93 27 0 30 5 59
93 17 50 31 96 31 100 0 5 -10 7 -21 5 -18 -2 -26 -18 -45 -78 -12 -41 -23
-73 -24 -70 0 3 -11 37 -23 75 -18 56 -27 71 -45 73 -12 2 -22 0 -22 -5z"/>
<path d="M13680 9120 c0 -100 0 -100 25 -100 23 0 24 3 27 72 3 71 4 73 33 82
17 6 31 11 33 12 1 0 0 9 -4 18 -8 20 -28 21 -48 0 -15 -14 -16 -14 -16 0 0
10 -9 16 -25 16 l-25 0 0 -100z"/>
<path d="M13810 9217 c0 -2 16 -49 35 -106 35 -106 36 -131 4 -131 -12 0 -19
-7 -19 -20 0 -26 40 -27 68 -2 15 13 102 233 102 258 0 2 -11 4 -24 4 -20 0
-26 -9 -46 -77 l-23 -78 -26 78 c-22 66 -28 77 -48 77 -13 0 -23 -1 -23 -3z"/>
<path d="M14370 9120 l0 -100 25 0 25 0 0 100 0 100 -25 0 -25 0 0 -100z"/>
<path d="M15030 9120 l0 -100 25 0 25 0 0 100 0 100 -25 0 -25 0 0 -100z"/>
<path d="M19140 9120 l0 -100 25 0 c24 0 25 2 25 74 l0 74 30 7 c21 5 30 13
30 26 0 22 -29 26 -48 7 -9 -9 -12 -9 -12 0 0 7 -11 12 -25 12 l-25 0 0 -100z"/>
<path d="M21320 9120 l0 -100 25 0 c24 0 25 2 25 74 l0 74 30 7 c21 5 30 13
30 26 0 22 -29 26 -48 7 -9 -9 -12 -9 -12 0 0 7 -11 12 -25 12 l-25 0 0 -100z"/>
<path d="M1390 8552 c0 -86 4 -132 12 -140 15 -15 48 -16 48 -2 0 6 -7 10 -15
10 -13 0 -15 21 -15 130 0 109 -2 130 -15 130 -13 0 -15 -21 -15 -128z"/>
<path d="M3140 8540 c0 -118 2 -140 15 -140 8 0 15 7 15 17 0 15 1 15 18 0 51
-46 122 2 122 83 0 81 -71 129 -122 83 -17 -15 -18 -14 -18 40 0 44 -3 57 -15
57 -13 0 -15 -22 -15 -140z m118 24 c17 -12 22 -25 22 -61 0 -70 -38 -101 -91
-73 -27 15 -28 124 -1 139 24 15 44 13 70 -5z"/>
<path d="M3830 8665 c0 -8 7 -15 15 -15 8 0 15 7 15 15 0 8 -7 15 -15 15 -8 0
-15 -7 -15 -15z"/>
<path d="M7310 8552 c0 -86 4 -132 12 -140 15 -15 48 -16 48 -2 0 6 -7 10 -15
10 -13 0 -15 21 -15 130 0 109 -2 130 -15 130 -13 0 -15 -21 -15 -128z"/>
<path d="M9060 8540 c0 -118 2 -140 15 -140 8 0 15 7 15 17 0 15 1 15 18 0 51
-46 122 2 122 83 0 81 -71 129 -122 83 -17 -15 -18 -14 -18 40 0 44 -3 57 -15
57 -13 0 -15 -22 -15 -140z m118 24 c17 -12 22 -25 22 -61 0 -70 -38 -101 -91
-73 -27 15 -28 124 -1 139 24 15 44 13 70 -5z"/>
<path d="M9750 8665 c0 -8 7 -15 15 -15 8 0 15 7 15 15 0 8 -7 15 -15 15 -8 0
-15 -7 -15 -15z"/>
<path d="M13230 8552 c0 -86 4 -132 12 -140 15 -15 48 -16 48 -2 0 6 -7 10
-15 10 -13 0 -15 21 -15 130 0 109 -2 130 -15 130 -13 0 -15 -21 -15 -128z"/>
<path d="M14980 8540 c0 -118 2 -140 15 -140 8 0 15 7 15 17 0 15 1 15 18 0
51 -46 122 2 122 83 0 81 -71 129 -122 83 -17 -15 -18 -14 -18 40 0 44 -3 57
-15 57 -13 0 -15 -22 -15 -140z m118 24 c17 -12 22 -25 22 -61 0 -70 -38 -101
-91 -73 -27 15 -28 124 -1 139 24 15 44 13 70 -5z"/>
<path d="M15670 8665 c0 -8 7 -15 15 -15 8 0 15 7 15 15 0 8 -7 15 -15 15 -8
0 -15 -7 -15 -15z"/>
<path d="M18490 8665 c0 -8 7 -15 15 -15 8 0 15 7 15 15 0 8 -7 15 -15 15 -8
0 -15 -7 -15 -15z"/>
<path d="M18590 8540 c0 -118 2 -140 15 -140 8 0 15 7 16 15 0 8 0 47 0 85 0
174 0 180 -16 180 -13 0 -15 -22 -15 -140z"/>
<path d="M1510 8625 c0 -18 -5 -25 -20 -25 -26 0 -26 -20 0 -27 17 -4 20 -15
22 -87 3 -80 3 -81 31 -84 31 -4 37 13 7 21 -18 5 -20 14 -20 76 0 40 4 72 10
72 6 1 15 2 22 3 25 2 19 26 -6 26 -21 0 -26 5 -26 25 0 14 -4 25 -10 25 -5 0
-10 -11 -10 -25z"/>
<path d="M3380 8629 c0 -12 -8 -23 -20 -26 -21 -6 -29 -35 -7 -30 8 1 13 -19
15 -73 3 -81 12 -100 48 -100 29 0 32 16 4 23 -18 5 -20 14 -20 76 0 64 2 71
20 71 11 0 20 7 20 15 0 8 -9 15 -20 15 -15 0 -20 7 -20 25 0 14 -4 25 -10 25
-5 0 -10 -9 -10 -21z"/>
<path d="M7430 8625 c0 -18 -5 -25 -20 -25 -26 0 -26 -20 0 -27 17 -4 20 -15
22 -87 3 -80 3 -81 31 -84 31 -4 37 13 7 21 -18 5 -20 14 -20 76 0 40 4 72 10
72 6 1 15 2 22 3 25 2 19 26 -6 26 -21 0 -26 5 -26 25 0 14 -4 25 -10 25 -5 0
-10 -11 -10 -25z"/>
<path d="M9300 8629 c0 -12 -8 -23 -20 -26 -21 -6 -29 -35 -7 -30 8 1 13 -19
15 -73 3 -81 12 -100 48 -100 29 0 32 16 4 23 -18 5 -20 14 -20 76 0 64 2 71
20 71 11 0 20 7 20 15 0 8 -9 15 -20 15 -15 0 -20 7 -20 25 0 14 -4 25 -10 25
-5 0 -10 -9 -10 -21z"/>
<path d="M13350 8625 c0 -18 -5 -25 -20 -25 -26 0 -26 -20 0 -27 17 -4 20 -15
22 -87 3 -80 3 -81 31 -84 31 -4 37 13 7 21 -18 5 -20 14 -20 76 0 40 4 72 10
72 6 1 15 2 22 3 25 2 19 26 -6 26 -21 0 -26 5 -26 25 0 14 -4 25 -10 25 -5 0
-10 -11 -10 -25z"/>
<path d="M15220 8629 c0 -12 -8 -23 -20 -26 -21 -6 -29 -35 -7 -30 8 1 13 -19
15 -73 3 -81 12 -100 48 -100 29 0 32 16 4 23 -18 5 -20 14 -20 76 0 64 2 71
20 71 11 0 20 7 20 15 0 8 -9 15 -20 15 -15 0 -20 7 -20 25 0 14 -4 25 -10 25
-5 0 -10 -9 -10 -21z"/>
<path d="M20260 8625 c0 -16 -6 -25 -15 -25 -8 0 -15 -7 -15 -15 0 -8 7 -15
15 -15 12 0 15 -15 15 -73 0 -43 5 -78 12 -85 15 -15 58 -16 58 -2 0 6 -9 10
-20 10 -18 0 -20 7 -20 75 0 68 2 75 20 75 11 0 20 7 20 15 0 8 -9 15 -20 15
-15 0 -20 7 -20 25 0 16 -6 25 -15 25 -9 0 -15 -9 -15 -25z"/>
<path d="M4260 8610 c0 -5 -17 -10 -38 -10 -25 0 -45 -7 -55 -18 -21 -24 -22
-76 -1 -93 14 -12 14 -14 -1 -26 -12 -8 -16 -20 -12 -34 3 -12 -1 -31 -9 -43
-22 -34 1 -58 62 -63 63 -5 98 13 102 52 5 38 -19 55 -79 55 -49 0 -72 15 -48
31 8 5 26 9 42 9 55 0 79 51 52 113 -5 13 -2 17 14 17 12 0 21 5 21 10 0 6
-11 10 -25 10 -14 0 -25 -4 -25 -10z m-16 -36 c19 -7 21 -55 4 -72 -20 -20
-57 -14 -69 12 -21 45 16 79 65 60z m43 -190 c9 -23 -23 -44 -68 -44 -39 0
-65 20 -55 45 8 22 114 21 123 -1z"/>
<path d="M10180 8610 c0 -5 -17 -10 -38 -10 -25 0 -45 -7 -55 -18 -21 -24 -22
-76 -1 -93 14 -12 14 -14 -1 -26 -12 -8 -16 -20 -12 -34 3 -12 -1 -31 -9 -43
-22 -34 1 -58 62 -63 63 -5 98 13 102 52 5 38 -19 55 -79 55 -49 0 -72 15 -48
31 8 5 26 9 42 9 55 0 79 51 52 113 -5 13 -2 17 14 17 12 0 21 5 21 10 0 6
-11 10 -25 10 -14 0 -25 -4 -25 -10z m-16 -36 c19 -7 21 -55 4 -72 -20 -20
-57 -14 -69 12 -21 45 16 79 65 60z m43 -190 c9 -23 -23 -44 -68 -44 -39 0
-65 20 -55 45 8 22 114 21 123 -1z"/>
<path d="M16100 8610 c0 -5 -17 -10 -38 -10 -25 0 -45 -7 -55 -18 -21 -24 -22
-76 -1 -93 14 -12 14 -14 -1 -26 -12 -8 -16 -20 -12 -34 3 -12 -1 -31 -9 -43
-22 -34 1 -58 62 -63 63 -5 98 13 102 52 5 38 -19 55 -79 55 -49 0 -72 15 -48
31 8 5 26 9 42 9 55 0 79 51 52 113 -5 13 -2 17 14 17 12 0 21 5 21 10 0 6
-11 10 -25 10 -14 0 -25 -4 -25 -10z m-16 -36 c19 -7 21 -55 4 -72 -20 -20
-57 -14 -69 12 -21 45 16 79 65 60z m43 -190 c9 -23 -23 -44 -68 -44 -39 0
-65 20 -55 45 8 22 114 21 123 -1z"/>
<path d="M21800 8610 c0 -5 -17 -10 -38 -10 -25 0 -45 -7 -55 -18 -21 -24 -22
-76 -1 -93 14 -12 14 -14 -1 -26 -12 -8 -16 -20 -12 -34 3 -12 -1 -32 -9 -45
-14 -21 -14 -24 6 -44 19 -19 31 -22 76 -18 63 5 84 20 84 59 0 35 -24 49 -84
49 -46 0 -69 16 -45 31 8 5 26 9 42 9 55 0 79 51 52 113 -5 13 -2 17 14 17 12
0 21 5 21 10 0 6 -11 10 -25 10 -14 0 -25 -4 -25 -10z m-16 -36 c19 -7 21 -55
4 -72 -20 -20 -57 -14 -69 12 -21 45 16 79 65 60z m43 -190 c9 -23 -23 -44
-68 -44 -39 0 -65 20 -55 45 8 22 114 21 123 -1z"/>
<path d="M739 8583 c-3 -95 4 -250 12 -257 5 -6 9 12 9 49 0 56 1 57 18 42 29
-26 77 -22 101 9 31 39 29 117 -4 149 -28 29 -70 32 -97 8 -17 -15 -18 -15
-18 0 0 23 -20 22 -21 0z m113 -20 c24 -21 25 -99 1 -125 -39 -44 -93 -9 -93
60 0 72 47 106 92 65z"/>
<path d="M983 8585 c-30 -21 -44 -75 -32 -120 18 -66 94 -88 139 -40 19 20 24
37 24 77 0 43 -4 54 -28 74 -31 28 -72 31 -103 9z m87 -25 c43 -43 15 -140
-40 -140 -33 0 -60 35 -60 80 0 45 27 80 60 80 11 0 29 -9 40 -20z"/>
<path d="M1170 8536 c0 -67 12 -115 33 -128 20 -13 64 -9 77 7 11 13 8 14 -17
9 -48 -10 -63 14 -63 102 0 59 -3 74 -15 74 -12 0 -15 -14 -15 -64z"/>
<path d="M1298 8518 c-3 -90 0 -118 13 -118 5 0 9 45 9 100 0 55 -4 100 -9
100 -5 0 -11 -37 -13 -82z"/>
<path d="M1630 8500 c0 -82 3 -100 15 -100 12 0 15 15 15 73 0 78 9 97 47 97
14 0 23 6 23 15 0 19 -20 19 -48 -1 -20 -14 -22 -14 -22 0 0 9 -7 16 -15 16
-12 0 -15 -18 -15 -100z"/>
<path d="M1755 8583 c63 -158 76 -233 40 -233 -8 0 -15 -4 -15 -10 0 -14 36
-12 47 3 16 20 95 248 89 255 -11 10 -22 -11 -52 -92 l-28 -79 -30 86 c-18 52
-37 87 -45 87 -8 0 -11 -6 -6 -17z"/>
<path d="M1976 8584 c-20 -20 -21 -58 -1 -74 8 -7 29 -15 47 -19 39 -8 57 -33
39 -55 -17 -20 -45 -20 -75 0 -31 20 -44 1 -14 -20 42 -30 104 -19 119 21 14
37 -5 61 -57 74 -25 7 -48 18 -51 26 -12 32 48 58 74 32 6 -6 17 -8 24 -4 9 6
7 11 -6 22 -25 18 -80 17 -99 -3z"/>
<path d="M2169 8574 c-19 -20 -24 -37 -24 -74 0 -37 5 -54 24 -74 30 -32 78
-34 112 -7 33 26 19 36 -20 14 -28 -16 -33 -17 -58 -3 -16 9 -29 26 -31 38 -3
21 0 22 67 22 l71 0 0 29 c0 71 -92 107 -141 55z m95 -10 c9 -8 16 -24 16 -35
0 -16 -7 -19 -55 -19 -45 0 -55 3 -55 17 0 44 63 69 94 37z"/>
<path d="M2370 8500 c0 -55 4 -100 9 -100 5 0 11 37 13 83 3 89 0 117 -13 117
-5 0 -9 -45 -9 -100z"/>
<path d="M2410 8585 c-11 -13 -8 -14 17 -9 48 10 63 -14 63 -102 0 -59 3 -74
15 -74 31 0 15 171 -18 192 -20 13 -64 9 -77 -7z"/>
<path d="M2598 8588 c-43 -35 -26 -81 37 -97 49 -12 65 -32 45 -56 -16 -19
-50 -19 -77 0 -13 9 -24 11 -28 6 -9 -15 36 -41 72 -41 40 0 63 23 63 61 0 31
-14 41 -73 54 -34 7 -45 31 -23 53 13 14 21 14 48 4 37 -14 57 -6 31 14 -23
17 -74 18 -95 2z"/>
<path d="M2799 8587 c-24 -18 -39 -52 -39 -87 0 -59 34 -99 85 -100 31 0 75
24 75 41 0 14 -20 11 -36 -6 -32 -31 -94 -6 -94 38 0 14 11 17 70 17 64 0 70
2 70 21 0 48 -39 88 -85 88 -16 0 -37 -5 -46 -12z m83 -24 c10 -9 18 -24 18
-35 0 -15 -8 -18 -55 -18 -60 0 -71 15 -38 52 20 22 51 23 75 1z"/>
<path d="M3506 8584 c-37 -37 -10 -82 57 -98 33 -8 44 -30 27 -51 -16 -19 -50
-19 -77 0 -13 9 -24 11 -28 6 -8 -14 35 -41 66 -41 41 0 60 10 70 37 14 37 -5
61 -57 74 -25 7 -48 18 -51 26 -12 32 48 58 74 32 6 -6 17 -8 24 -4 9 6 7 11
-6 22 -25 18 -80 17 -99 -3z"/>
<path d="M3840 8500 c0 -60 4 -100 10 -100 6 0 10 40 10 100 0 60 -4 100 -10
100 -6 0 -10 -40 -10 -100z"/>
<path d="M3930 8500 c0 -81 3 -100 15 -100 11 0 15 18 17 82 3 80 4 83 31 92
43 16 59 -8 65 -98 2 -42 9 -76 13 -76 16 0 10 154 -7 178 -18 26 -60 29 -86
5 -17 -15 -18 -15 -18 0 0 10 -7 17 -15 17 -12 0 -15 -18 -15 -100z"/>
<path d="M6659 8583 c-3 -95 4 -250 12 -257 5 -6 9 12 9 49 0 56 1 57 18 42
29 -26 77 -22 101 9 31 39 29 117 -4 149 -28 29 -70 32 -97 8 -17 -15 -18 -15
-18 0 0 23 -20 22 -21 0z m113 -20 c24 -21 25 -99 1 -125 -39 -44 -93 -9 -93
60 0 72 47 106 92 65z"/>
<path d="M6903 8585 c-30 -21 -44 -75 -32 -120 18 -66 94 -88 139 -40 19 20
24 37 24 77 0 43 -4 54 -28 74 -31 28 -72 31 -103 9z m87 -25 c43 -43 15 -140
-40 -140 -33 0 -60 35 -60 80 0 45 27 80 60 80 11 0 29 -9 40 -20z"/>
<path d="M7090 8536 c0 -67 12 -115 33 -128 20 -13 64 -9 77 7 11 13 8 14 -17
9 -48 -10 -63 14 -63 102 0 59 -3 74 -15 74 -12 0 -15 -14 -15 -64z"/>
<path d="M7218 8518 c-3 -90 0 -118 13 -118 5 0 9 45 9 100 0 55 -4 100 -9
100 -5 0 -11 -37 -13 -82z"/>
<path d="M7550 8500 c0 -82 3 -100 15 -100 12 0 15 15 15 73 0 78 9 97 47 97
14 0 23 6 23 15 0 19 -20 19 -48 -1 -20 -14 -22 -14 -22 0 0 9 -7 16 -15 16
-12 0 -15 -18 -15 -100z"/>
<path d="M7675 8583 c63 -158 76 -233 40 -233 -8 0 -15 -4 -15 -10 0 -14 36
-12 47 3 16 20 95 248 89 255 -11 10 -22 -11 -52 -92 l-28 -79 -30 86 c-18 52
-37 87 -45 87 -8 0 -11 -6 -6 -17z"/>
<path d="M7896 8584 c-20 -20 -21 -58 -1 -74 8 -7 29 -15 47 -19 39 -8 57 -33
39 -55 -17 -20 -45 -20 -75 0 -31 20 -44 1 -14 -20 42 -30 104 -19 119 21 14
37 -5 61 -57 74 -25 7 -48 18 -51 26 -12 32 48 58 74 32 6 -6 17 -8 24 -4 9 6
7 11 -6 22 -25 18 -80 17 -99 -3z"/>
<path d="M8089 8574 c-19 -20 -24 -37 -24 -74 0 -37 5 -54 24 -74 30 -32 78
-34 112 -7 33 26 19 36 -20 14 -28 -16 -33 -17 -58 -3 -16 9 -29 26 -31 38 -3
21 0 22 67 22 l71 0 0 29 c0 71 -92 107 -141 55z m95 -10 c9 -8 16 -24 16 -35
0 -16 -7 -19 -55 -19 -45 0 -55 3 -55 17 0 44 63 69 94 37z"/>
<path d="M8290 8500 c0 -55 4 -100 9 -100 5 0 11 37 13 83 3 89 0 117 -13 117
-5 0 -9 -45 -9 -100z"/>
<path d="M8330 8585 c-11 -13 -8 -14 17 -9 48 10 63 -14 63 -102 0 -59 3 -74
15 -74 31 0 15 171 -18 192 -20 13 -64 9 -77 -7z"/>
<path d="M8518 8588 c-43 -35 -26 -81 37 -97 49 -12 65 -32 45 -56 -16 -19
-50 -19 -77 0 -13 9 -24 11 -28 6 -9 -15 36 -41 72 -41 40 0 63 23 63 61 0 31
-14 41 -73 54 -34 7 -45 31 -23 53 13 14 21 14 48 4 37 -14 57 -6 31 14 -23
17 -74 18 -95 2z"/>
<path d="M8719 8587 c-24 -18 -39 -52 -39 -87 0 -59 34 -99 85 -100 31 0 75
24 75 41 0 14 -20 11 -36 -6 -32 -31 -94 -6 -94 38 0 14 11 17 70 17 64 0 70
2 70 21 0 48 -39 88 -85 88 -16 0 -37 -5 -46 -12z m83 -24 c10 -9 18 -24 18
-35 0 -15 -8 -18 -55 -18 -60 0 -71 15 -38 52 20 22 51 23 75 1z"/>
<path d="M9426 8584 c-37 -37 -10 -82 57 -98 33 -8 44 -30 27 -51 -16 -19 -50
-19 -77 0 -13 9 -24 11 -28 6 -8 -14 35 -41 66 -41 41 0 60 10 70 37 14 37 -5
61 -57 74 -25 7 -48 18 -51 26 -12 32 48 58 74 32 6 -6 17 -8 24 -4 9 6 7 11
-6 22 -25 18 -80 17 -99 -3z"/>
<path d="M9760 8500 c0 -60 4 -100 10 -100 6 0 10 40 10 100 0 60 -4 100 -10
100 -6 0 -10 -40 -10 -100z"/>
<path d="M9850 8500 c0 -81 3 -100 15 -100 11 0 15 18 17 82 3 80 4 83 31 92
43 16 59 -8 65 -98 2 -42 9 -76 13 -76 16 0 10 154 -7 178 -18 26 -60 29 -86
5 -17 -15 -18 -15 -18 0 0 10 -7 17 -15 17 -12 0 -15 -18 -15 -100z"/>
<path d="M12579 8583 c-3 -95 4 -250 12 -257 5 -6 9 12 9 49 0 56 1 57 18 42
29 -26 77 -22 101 9 31 39 29 117 -4 149 -28 29 -70 32 -97 8 -17 -15 -18 -15
-18 0 0 23 -20 22 -21 0z m113 -20 c24 -21 25 -99 1 -125 -39 -44 -93 -9 -93
60 0 72 47 106 92 65z"/>
<path d="M12823 8585 c-30 -21 -44 -75 -32 -120 18 -66 94 -88 139 -40 19 20
24 37 24 77 0 43 -4 54 -28 74 -31 28 -72 31 -103 9z m87 -25 c43 -43 15 -140
-40 -140 -33 0 -60 35 -60 80 0 45 27 80 60 80 11 0 29 -9 40 -20z"/>
<path d="M13010 8536 c0 -67 12 -115 33 -128 20 -13 64 -9 77 7 11 13 8 14
-17 9 -48 -10 -63 14 -63 102 0 59 -3 74 -15 74 -12 0 -15 -14 -15 -64z"/>
<path d="M13138 8518 c-3 -90 0 -118 13 -118 5 0 9 45 9 100 0 55 -4 100 -9
100 -5 0 -11 -37 -13 -82z"/>
<path d="M13470 8500 c0 -82 3 -100 15 -100 12 0 15 15 15 73 0 78 9 97 47 97
14 0 23 6 23 15 0 19 -20 19 -48 -1 -20 -14 -22 -14 -22 0 0 9 -7 16 -15 16
-12 0 -15 -18 -15 -100z"/>
<path d="M13595 8583 c63 -158 76 -233 40 -233 -8 0 -15 -4 -15 -10 0 -14 36
-12 47 3 16 20 95 248 89 255 -11 10 -22 -11 -52 -92 l-28 -79 -30 86 c-18 52
-37 87 -45 87 -8 0 -11 -6 -6 -17z"/>
<path d="M13816 8584 c-20 -20 -21 -58 -1 -74 8 -7 29 -15 47 -19 39 -8 57
-33 39 -55 -17 -20 -45 -20 -75 0 -31 20 -44 1 -14 -20 42 -30 104 -19 119 21
14 37 -5 61 -57 74 -25 7 -48 18 -51 26 -12 32 48 58 74 32 6 -6 17 -8 24 -4
9 6 7 11 -6 22 -25 18 -80 17 -99 -3z"/>
<path d="M14009 8574 c-19 -20 -24 -37 -24 -74 0 -37 5 -54 24 -74 30 -32 78
-34 112 -7 33 26 19 36 -20 14 -28 -16 -33 -17 -58 -3 -16 9 -29 26 -31 38 -3
21 0 22 67 22 l71 0 0 29 c0 71 -92 107 -141 55z m95 -10 c9 -8 16 -24 16 -35
0 -16 -7 -19 -55 -19 -45 0 -55 3 -55 17 0 44 63 69 94 37z"/>
<path d="M14210 8500 c0 -55 4 -100 9 -100 5 0 11 37 13 83 3 89 0 117 -13
117 -5 0 -9 -45 -9 -100z"/>
<path d="M14250 8585 c-11 -13 -8 -14 17 -9 48 10 63 -14 63 -102 0 -59 3 -74
15 -74 31 0 15 171 -18 192 -20 13 -64 9 -77 -7z"/>
<path d="M14438 8588 c-43 -35 -26 -81 37 -97 49 -12 65 -32 45 -56 -16 -19
-50 -19 -77 0 -13 9 -24 11 -28 6 -9 -15 36 -41 72 -41 40 0 63 23 63 61 0 31
-14 41 -73 54 -34 7 -45 31 -23 53 13 14 21 14 48 4 37 -14 57 -6 31 14 -23
17 -74 18 -95 2z"/>
<path d="M14639 8587 c-24 -18 -39 -52 -39 -87 0 -59 34 -99 85 -100 31 0 75
24 75 41 0 14 -20 11 -36 -6 -32 -31 -94 -6 -94 38 0 14 11 17 70 17 64 0 70
2 70 21 0 48 -39 88 -85 88 -16 0 -37 -5 -46 -12z m83 -24 c10 -9 18 -24 18
-35 0 -15 -8 -18 -55 -18 -60 0 -71 15 -38 52 20 22 51 23 75 1z"/>
<path d="M15346 8584 c-37 -37 -10 -82 57 -98 33 -8 44 -30 27 -51 -16 -19
-50 -19 -77 0 -13 9 -24 11 -28 6 -8 -14 35 -41 66 -41 41 0 60 10 70 37 14
37 -5 61 -57 74 -25 7 -48 18 -51 26 -12 32 48 58 74 32 6 -6 17 -8 24 -4 9 6
7 11 -6 22 -25 18 -80 17 -99 -3z"/>
<path d="M15680 8500 c0 -60 4 -100 10 -100 6 0 10 40 10 100 0 60 -4 100 -10
100 -6 0 -10 -40 -10 -100z"/>
<path d="M15770 8500 c0 -81 3 -100 15 -100 11 0 15 18 17 82 3 80 4 83 31 92
43 16 59 -8 65 -98 2 -42 9 -76 13 -76 16 0 10 154 -7 178 -18 26 -60 29 -86
5 -17 -15 -18 -15 -18 0 0 10 -7 17 -15 17 -12 0 -15 -18 -15 -100z"/>
<path d="M18500 8500 c0 -60 4 -100 10 -100 6 0 10 40 10 100 0 60 -4 100 -10
100 -6 0 -10 -40 -10 -100z"/>
<path d="M18643 8593 c-25 -9 -13 -22 16 -17 41 9 71 -23 71 -76 0 -53 -30
-85 -71 -76 -30 6 -40 -8 -13 -18 48 -18 90 4 104 55 26 88 -34 162 -107 132z"/>
<path d="M18820 8500 c0 -55 4 -100 9 -100 5 0 11 37 13 83 3 89 0 117 -13
117 -5 0 -9 -45 -9 -100z"/>
<path d="M18860 8585 c-11 -13 -8 -14 18 -9 44 9 62 -23 62 -108 0 -39 4 -68
10 -68 6 0 10 31 10 73 0 77 15 107 53 107 34 0 47 -29 47 -106 0 -43 4 -74
10 -74 6 0 10 35 10 84 0 64 -4 88 -16 100 -20 21 -63 20 -86 -1 -17 -15 -19
-15 -36 0 -23 21 -65 22 -82 2z"/>
<path d="M19318 8588 c-43 -35 -26 -81 37 -97 49 -12 65 -32 45 -56 -16 -19
-50 -19 -77 0 -13 9 -24 11 -28 6 -9 -15 36 -41 72 -41 40 0 63 23 63 61 0 31
-14 41 -73 54 -34 7 -45 31 -23 53 13 14 21 14 48 4 37 -14 57 -6 31 14 -23
17 -74 18 -95 2z"/>
<path d="M19519 8587 c-24 -18 -39 -52 -39 -87 0 -59 34 -99 85 -100 31 0 75
24 75 41 0 14 -20 11 -36 -6 -32 -31 -94 -6 -94 38 0 14 11 17 70 17 64 0 70
2 70 21 0 48 -39 88 -85 88 -16 0 -37 -5 -46 -12z m83 -24 c10 -9 18 -24 18
-35 0 -15 -8 -18 -55 -18 -60 0 -71 15 -38 52 20 22 51 23 75 1z"/>
<path d="M19723 8580 c-26 -23 -37 -69 -28 -110 14 -65 86 -91 136 -51 30 24
19 39 -13 17 -53 -38 -98 -7 -98 67 0 36 5 49 22 61 28 20 52 20 68 1 16 -19
30 -19 30 0 0 36 -83 47 -117 15z"/>
<path d="M19900 8500 c0 -60 4 -100 10 -100 6 0 10 30 10 69 0 77 13 101 56
101 15 0 24 6 24 15 0 19 -21 19 -46 0 -25 -19 -34 -19 -34 0 0 8 -4 15 -10
15 -6 0 -10 -40 -10 -100z"/>
<path d="M20063 8585 c-12 -9 -27 -31 -32 -50 -12 -45 2 -99 32 -120 38 -27
117 -14 117 20 0 19 -14 19 -30 0 -17 -21 -56 -19 -80 5 -38 38 -27 50 50 50
l70 0 0 30 c0 63 -75 101 -127 65z m78 -15 c11 -6 19 -21 19 -35 0 -24 -3 -25
-55 -25 -61 0 -71 14 -35 50 22 22 42 25 71 10z"/>
<path d="M20398 8588 c-43 -35 -26 -81 37 -97 49 -12 65 -32 45 -56 -16 -19
-50 -19 -77 0 -13 9 -24 11 -28 6 -9 -15 36 -41 72 -41 40 0 63 23 63 61 0 31
-14 41 -73 54 -34 7 -45 31 -23 53 13 14 21 14 48 4 37 -14 57 -6 31 14 -23
17 -74 18 -95 2z"/>
<path d="M20720 8500 c0 -82 3 -100 15 -100 12 0 15 16 15 80 0 77 1 81 26 92
46 21 59 2 62 -91 2 -62 6 -81 17 -81 11 0 15 19 17 82 3 80 4 83 31 92 44 16
61 -10 65 -99 2 -41 8 -75 13 -75 5 0 9 38 9 83 0 69 -3 87 -18 100 -24 22
-66 22 -87 1 -15 -15 -17 -15 -34 0 -23 21 -59 20 -83 -1 -17 -15 -18 -15 -18
0 0 10 -7 17 -15 17 -12 0 -15 -18 -15 -100z"/>
<path d="M21066 8581 c-10 -11 -13 -22 -8 -25 5 -3 15 1 22 9 13 16 47 20 67
7 7 -4 14 -19 15 -32 3 -23 -1 -25 -46 -31 -69 -8 -92 -41 -60 -87 18 -26 75
-30 94 -7 12 14 15 14 30 0 18 -17 40 -20 40 -6 0 5 -7 11 -15 15 -11 4 -15
22 -15 74 0 54 -4 72 -18 85 -25 23 -85 22 -106 -2z m104 -109 c0 -45 -70 -68
-93 -31 -19 31 -1 49 48 49 37 0 45 -3 45 -18z"/>
<path d="M21270 8500 c0 -55 4 -100 9 -100 5 0 11 37 13 83 3 89 0 117 -13
117 -5 0 -9 -45 -9 -100z"/>
<path d="M21310 8585 c-11 -13 -8 -14 17 -9 48 10 63 -14 63 -102 0 -59 3 -74
15 -74 31 0 15 171 -18 192 -20 13 -64 9 -77 -7z"/>
<path d="M21495 8587 c-10 -8 -15 -19 -11 -26 5 -8 11 -7 22 4 32 32 84 12 84
-32 0 -21 -5 -23 -44 -23 -50 0 -76 -19 -76 -55 0 -50 69 -75 105 -38 16 16
18 16 27 0 10 -18 38 -23 38 -7 0 6 -4 10 -9 10 -5 0 -11 34 -13 76 -3 60 -7
79 -23 90 -24 18 -76 18 -100 1z m95 -122 c0 -41 -69 -63 -89 -28 -16 30 5 53
49 53 36 0 40 -3 40 -25z"/>
<path d="M21905 8575 c-20 -19 -25 -34 -25 -75 0 -63 30 -100 82 -100 41 0 85
27 69 43 -7 7 -16 6 -29 -6 -19 -18 -49 -22 -68 -9 -11 7 -34 45 -34 56 0 3
34 6 76 6 l76 0 -7 33 c-16 75 -90 103 -140 52z m101 -20 c22 -34 11 -45 -45
-45 -56 0 -64 5 -49 34 23 44 69 49 94 11z"/>
<path d="M2980 8515 c0 -11 12 -15 50 -15 38 0 50 4 50 15 0 11 -12 15 -50 15
-38 0 -50 -4 -50 -15z"/>
<path d="M3680 8515 c0 -11 12 -15 45 -15 33 0 45 4 45 15 0 11 -12 15 -45 15
-33 0 -45 -4 -45 -15z"/>
<path d="M8900 8515 c0 -11 12 -15 50 -15 38 0 50 4 50 15 0 11 -12 15 -50 15
-38 0 -50 -4 -50 -15z"/>
<path d="M9600 8515 c0 -11 12 -15 45 -15 33 0 45 4 45 15 0 11 -12 15 -45 15
-33 0 -45 -4 -45 -15z"/>
<path d="M14820 8515 c0 -11 12 -15 50 -15 38 0 50 4 50 15 0 11 -12 15 -50
15 -38 0 -50 -4 -50 -15z"/>
<path d="M15520 8515 c0 -11 12 -15 45 -15 33 0 45 4 45 15 0 11 -12 15 -45
15 -33 0 -45 -4 -45 -15z"/>
<path d="M19150 8515 c0 -11 12 -15 45 -15 33 0 45 4 45 15 0 11 -12 15 -45
15 -33 0 -45 -4 -45 -15z"/>
<path d="M20560 8515 c0 -11 12 -15 50 -15 38 0 50 4 50 15 0 11 -12 15 -50
15 -38 0 -50 -4 -50 -15z"/>
<path d="M4350 8420 c0 -13 7 -20 20 -20 13 0 20 7 20 20 0 13 -7 20 -20 20
-13 0 -20 -7 -20 -20z"/>
<path d="M4455 8430 c-8 -14 3 -30 21 -30 8 0 14 9 14 20 0 21 -24 28 -35 10z"/>
<path d="M4560 8420 c0 -15 5 -20 18 -18 9 2 17 10 17 18 0 8 -8 16 -17 18
-13 2 -18 -3 -18 -18z"/>
<path d="M10270 8420 c0 -13 7 -20 20 -20 13 0 20 7 20 20 0 13 -7 20 -20 20
-13 0 -20 -7 -20 -20z"/>
<path d="M10375 8430 c-8 -14 3 -30 21 -30 8 0 14 9 14 20 0 21 -24 28 -35 10z"/>
<path d="M10480 8420 c0 -15 5 -20 18 -18 9 2 17 10 17 18 0 8 -8 16 -17 18
-13 2 -18 -3 -18 -18z"/>
<path d="M16190 8420 c0 -13 7 -20 20 -20 13 0 20 7 20 20 0 13 -7 20 -20 20
-13 0 -20 -7 -20 -20z"/>
<path d="M16295 8430 c-8 -14 3 -30 21 -30 8 0 14 9 14 20 0 21 -24 28 -35 10z"/>
<path d="M16400 8420 c0 -15 5 -20 18 -18 9 2 17 10 17 18 0 8 -8 16 -17 18
-13 2 -18 -3 -18 -18z"/>
<path d="M22100 8420 c0 -13 7 -20 20 -20 13 0 20 7 20 20 0 13 -7 20 -20 20
-13 0 -20 -7 -20 -20z"/>
<path d="M22205 8430 c-8 -14 3 -30 21 -30 8 0 14 9 14 20 0 21 -24 28 -35 10z"/>
<path d="M22310 8420 c0 -15 5 -20 18 -18 9 2 17 10 17 18 0 8 -8 16 -17 18
-13 2 -18 -3 -18 -18z"/>
<path d="M12762 7074 c2 -11 8 -22 13 -26 6 -5 -5 -5 -22 -2 -26 5 -33 3 -33
-10 0 -9 3 -15 8 -15 4 1 9 0 12 -1 22 -8 47 -5 43 7 -3 7 0 13 6 13 6 0 11
-4 11 -10 0 -5 11 -10 25 -10 15 0 25 -6 25 -14 0 -20 19 -31 32 -18 8 8 6 16
-6 27 -18 19 -13 37 9 29 8 -4 12 -11 8 -17 -3 -6 -1 -7 5 -3 7 4 12 3 12 -1
0 -5 7 -18 15 -29 13 -17 14 -17 15 -2 0 22 -51 70 -67 63 -7 -2 -13 0 -13 6
0 6 -5 7 -10 4 -6 -4 -8 -11 -4 -16 3 -6 -8 -7 -27 -4 -39 7 -43 10 -34 24 4
8 12 8 26 0 12 -6 23 -8 27 -5 9 9 0 14 -41 21 -34 7 -38 5 -35 -11z"/>
<path d="M12693 7065 c-25 -10 -31 -18 -26 -31 5 -14 2 -16 -16 -11 -17 4 -21
2 -17 -9 3 -8 2 -13 -3 -10 -11 7 -27 -11 -40 -47 -7 -18 -7 -26 -1 -22 6 3
10 0 10 -7 1 -7 7 -2 15 12 19 34 18 52 -1 20 -8 -14 -13 -17 -10 -7 3 10 6
23 6 28 0 5 9 9 19 9 21 0 22 -23 3 -42 -21 -21 -13 -32 10 -12 12 10 18 14
15 7 -4 -6 -2 -15 4 -19 9 -5 10 0 5 17 -15 54 -15 60 2 57 12 -2 17 4 17 22
0 15 5 24 13 22 7 -1 15 4 18 12 3 8 12 12 20 9 8 -3 14 0 14 6 0 15 -18 13
-57 -4z"/>
<path d="M2022 7008 c-7 -7 -12 -25 -12 -40 0 -16 -7 -31 -15 -34 -8 -4 -15
-10 -15 -15 0 -5 7 -9 15 -9 12 0 15 -16 15 -85 0 -50 4 -85 10 -85 6 0 10 35
10 85 0 84 0 85 25 85 31 0 33 17 3 22 -18 2 -23 10 -23 33 0 23 5 31 23 33
12 2 22 8 22 13 0 13 -44 11 -58 -3z"/>
<path d="M2117 7014 c-13 -13 -7 -24 14 -24 11 0 19 5 17 12 -5 14 -22 21 -31
12z"/>
<path d="M3090 6965 l0 -55 -25 16 c-43 28 -100 -4 -111 -62 -7 -41 11 -101
36 -114 27 -15 66 -12 80 5 11 13 8 14 -19 9 -44 -9 -71 17 -71 68 0 57 14 78
54 78 45 0 58 -19 56 -82 -3 -77 -2 -88 15 -88 13 0 15 22 15 140 0 118 -2
140 -15 140 -12 0 -15 -13 -15 -55z"/>
<path d="M7942 7008 c-7 -7 -12 -25 -12 -40 0 -16 -7 -31 -15 -34 -8 -4 -15
-10 -15 -15 0 -5 7 -9 15 -9 12 0 15 -16 15 -85 0 -50 4 -85 10 -85 6 0 10 35
10 85 0 84 0 85 25 85 31 0 33 17 3 22 -18 2 -23 10 -23 33 0 23 5 31 23 33
12 2 22 8 22 13 0 13 -44 11 -58 -3z"/>
<path d="M8037 7014 c-13 -13 -7 -24 14 -24 11 0 19 5 17 12 -5 14 -22 21 -31
12z"/>
<path d="M9010 6965 l0 -55 -25 16 c-43 28 -100 -4 -111 -62 -7 -41 11 -101
36 -114 27 -15 66 -12 80 5 11 13 8 14 -19 9 -44 -9 -71 17 -71 68 0 57 14 78
54 78 45 0 58 -19 56 -82 -3 -77 -2 -88 15 -88 13 0 15 22 15 140 0 118 -2
140 -15 140 -12 0 -15 -13 -15 -55z"/>
<path d="M19782 7008 c-7 -7 -12 -25 -12 -40 0 -16 -7 -31 -15 -34 -8 -4 -15
-10 -15 -15 0 -5 7 -9 15 -9 12 0 15 -16 15 -85 0 -50 4 -85 10 -85 6 0 10 35
10 85 0 84 0 85 25 85 31 0 33 17 3 22 -18 2 -23 10 -23 33 0 23 5 31 23 33
12 2 22 8 22 13 0 13 -44 11 -58 -3z"/>
<path d="M19877 7014 c-13 -13 -7 -24 14 -24 11 0 19 5 17 12 -5 14 -22 21
-31 12z"/>
<path d="M20850 6965 l0 -55 -25 16 c-43 28 -100 -4 -111 -62 -7 -41 11 -101
36 -114 27 -15 66 -12 80 5 11 13 8 14 -19 9 -44 -9 -71 17 -71 68 0 57 14 78
54 78 45 0 58 -19 56 -82 -3 -77 -2 -88 15 -88 13 0 15 22 15 140 0 118 -2
140 -15 140 -12 0 -15 -13 -15 -55z"/>
<path d="M1393 7000 c-76 -32 -86 -211 -14 -250 34 -18 88 -12 117 13 16 14
24 29 20 36 -5 8 -16 4 -38 -14 -37 -31 -62 -32 -93 0 -21 20 -25 33 -25 88 0
53 4 67 23 85 29 28 71 28 98 1 13 -13 25 -17 30 -12 13 13 -31 52 -66 58 -17
2 -40 0 -52 -5z"/>
<path d="M7313 7000 c-76 -32 -86 -211 -14 -250 34 -18 88 -12 117 13 16 14
24 29 20 36 -5 8 -16 4 -38 -14 -37 -31 -62 -32 -93 0 -21 20 -25 33 -25 88 0
53 4 67 23 85 29 28 71 28 98 1 13 -13 25 -17 30 -12 13 13 -31 52 -66 58 -17
2 -40 0 -52 -5z"/>
<path d="M12686 6987 c-10 -11 -14 -22 -9 -26 8 -6 9 -21 3 -38 -2 -5 -4 -15
-4 -23 -1 -10 -9 -14 -24 -12 -12 2 -22 -2 -22 -8 0 -6 4 -9 9 -6 5 3 14 0 20
-8 9 -11 8 -15 -5 -20 -12 -5 -15 -2 -10 11 6 17 5 17 -6 1 -7 -9 -18 -25 -25
-35 -11 -16 -12 -16 -7 0 5 13 2 16 -9 11 -13 -5 -13 -10 -4 -33 7 -15 19 -38
28 -51 14 -21 16 -22 22 -6 5 11 3 15 -5 10 -8 -5 -9 0 -5 15 4 18 2 21 -10
17 -11 -5 -14 -2 -9 10 3 8 6 18 6 20 0 3 4 2 10 -1 6 -4 7 1 4 12 -4 13 0 11
14 -6 14 -18 21 -21 27 -11 5 8 4 11 -2 7 -6 -4 -13 0 -16 7 -4 10 0 14 11 13
13 -1 17 -11 18 -39 0 -23 -5 -38 -12 -38 -19 0 -13 -50 7 -60 11 -6 20 -10
22 -9 1 0 11 -3 21 -7 12 -5 21 -3 24 4 2 7 11 12 20 12 15 0 15 2 2 10 -12 8
-11 10 7 10 12 0 24 -4 28 -10 9 -14 35 0 35 19 0 12 -10 16 -43 17 -34 2 -37
0 -17 -6 l25 -8 -29 -1 c-22 -1 -27 3 -22 15 3 9 6 18 6 20 0 3 5 2 11 -1 6
-4 10 -1 8 6 -3 26 1 39 12 39 7 0 9 -10 5 -26 -6 -22 -5 -24 13 -15 30 16 50
13 46 -6 -4 -28 5 -35 22 -18 18 19 31 12 15 -8 -7 -8 -8 -17 -4 -22 4 -4 -3
-4 -15 -1 -22 7 -41 -8 -23 -19 5 -3 10 -2 10 4 0 6 6 8 13 6 14 -5 42 17 75
59 27 36 28 46 2 39 -16 -4 -18 -8 -9 -20 10 -11 9 -13 -2 -11 -8 2 -13 -3
-11 -9 3 -18 -17 -16 -24 2 -4 8 -10 12 -15 9 -10 -6 -59 40 -59 56 0 6 5 8
10 5 6 -4 10 -3 9 2 -3 19 2 34 10 29 5 -4 8 -17 6 -31 -1 -14 2 -28 8 -32 6
-4 7 -1 2 7 -5 8 -3 11 6 8 8 -3 13 -11 11 -17 -1 -7 2 -10 8 -6 5 3 10 1 10
-4 0 -6 4 -11 9 -11 6 0 8 10 6 22 -5 22 -21 38 -41 38 -6 0 -11 7 -11 15 0 8
5 15 10 15 5 0 6 7 3 16 -3 8 -2 13 3 9 5 -3 11 -1 13 5 2 6 8 6 18 0 13 -8
12 -10 -2 -10 -10 0 -18 -7 -18 -15 0 -8 7 -15 16 -15 8 0 13 -4 10 -8 -2 -4
-1 -14 3 -21 6 -9 10 -7 14 8 3 12 1 24 -4 27 -14 9 -10 27 5 21 7 -3 19 0 26
6 10 10 10 8 3 -8 -6 -11 -8 -26 -5 -34 3 -9 0 -11 -8 -6 -8 5 -11 3 -8 -5 6
-20 24 -23 27 -5 7 48 1 105 -11 105 -5 0 -7 4 -4 9 8 13 -4 42 -15 35 -5 -3
-6 -11 -2 -17 4 -7 8 -16 9 -22 1 -5 5 -17 8 -25 5 -11 0 -16 -14 -17 -11 -1
-20 2 -20 8 0 5 5 9 10 9 6 0 10 5 10 11 0 5 -4 8 -9 4 -5 -3 -12 -1 -16 5 -3
5 2 10 12 10 16 0 16 1 0 17 -16 16 -18 16 -33 -2 -13 -17 -15 -17 -10 -2 15
43 16 50 5 30 -12 -23 -33 -30 -43 -15 -2 4 -21 7 -40 6 -37 -2 -70 -20 -61
-34 3 -4 -2 -13 -9 -19 -10 -8 -16 -9 -21 -1 -3 5 -1 10 4 10 6 0 11 8 10 18
0 10 -3 12 -6 4 -2 -6 -8 -10 -13 -7 -4 2 -7 -5 -6 -18 1 -13 -6 -23 -17 -25
-16 -3 -17 -1 -6 20 7 12 15 30 19 38 5 8 17 14 29 13 29 -4 26 3 -6 14 -23 8
-32 6 -47 -10z m114 -25 c0 -5 -7 -9 -15 -9 -8 0 -15 4 -15 9 0 4 7 8 15 8 8
0 15 -4 15 -8z m121 -6 c-8 -10 -9 -16 -1 -21 6 -3 7 -11 4 -17 -4 -7 -9 -6
-14 1 -9 16 -103 -67 -96 -85 3 -8 0 -11 -9 -8 -7 3 -21 -7 -32 -22 -10 -14
-29 -38 -43 -52 -19 -19 -20 -24 -7 -19 22 8 36 -21 16 -33 -21 -14 -32 1 -12
17 17 13 16 13 -4 4 -30 -15 -32 -14 -30 9 1 11 10 23 20 26 17 5 17 7 2 24
-10 11 -15 25 -12 32 3 8 9 2 16 -15 6 -16 16 -25 22 -21 7 4 -6 23 -33 51
l-43 44 30 24 c16 13 32 22 34 19 3 -3 -1 -9 -9 -14 -13 -8 -12 -13 7 -31 l22
-22 51 51 c29 29 48 52 42 52 -5 0 -12 -3 -16 -7 -8 -8 -13 -9 -41 -12 -8 0
-15 -6 -15 -12 0 -6 7 -9 15 -5 21 8 19 3 -12 -25 -15 -13 -21 -16 -14 -6 8 9
11 21 7 24 -4 4 -11 1 -16 -7 -6 -8 -10 -10 -10 -4 0 37 115 78 146 53 7 -6
16 -4 24 6 7 8 15 15 17 15 3 0 0 -6 -6 -14z"/>
<path d="M13225 7003 c-32 -8 -55 -34 -55 -62 0 -39 11 -49 76 -74 53 -21 59
-26 62 -55 3 -26 -1 -34 -22 -43 -28 -13 -68 -6 -90 16 -11 11 -17 12 -22 3
-12 -19 34 -48 78 -48 67 0 111 66 76 113 -7 9 -38 25 -68 35 -58 20 -75 47
-50 78 16 18 69 18 89 0 9 -9 22 -12 29 -7 31 19 -56 56 -103 44z"/>
<path d="M19153 7000 c-76 -32 -86 -211 -14 -250 34 -18 88 -12 117 13 16 14
24 29 20 36 -5 8 -16 4 -38 -14 -37 -31 -62 -32 -93 0 -21 20 -25 33 -25 88 0
53 4 67 23 85 29 28 71 28 98 1 13 -13 25 -17 30 -12 13 13 -31 52 -66 58 -17
2 -40 0 -52 -5z"/>
<path d="M995 6900 l-100 -100 -56 56 c-35 35 -62 54 -69 49 -8 -5 10 -30 56
-76 l69 -69 107 107 c96 96 124 133 100 133 -4 0 -52 -45 -107 -100z"/>
<path d="M6915 6900 l-100 -100 -56 56 c-35 35 -62 54 -69 49 -8 -5 10 -30 56
-76 l69 -69 107 107 c96 96 124 133 100 133 -4 0 -52 -45 -107 -100z"/>
<path d="M18755 6900 l-100 -100 -56 56 c-35 35 -62 54 -69 49 -8 -5 10 -30
56 -76 l69 -69 107 107 c96 96 124 133 100 133 -4 0 -52 -45 -107 -100z"/>
<path d="M2324 6946 c-3 -8 -20 -13 -45 -12 -30 0 -45 -5 -55 -19 -18 -25 -18
-69 1 -85 14 -11 14 -15 -2 -32 -14 -15 -15 -23 -6 -38 10 -14 9 -19 -2 -24
-8 -3 -15 -17 -15 -31 0 -32 38 -49 97 -42 50 5 73 21 73 51 0 36 -16 48 -66
53 -27 2 -55 7 -63 9 -23 7 8 34 40 34 16 0 38 9 49 20 21 21 27 65 10 75 -15
10 -12 35 5 35 8 0 15 5 15 10 0 15 -30 12 -36 -4z m-15 -40 c7 -8 11 -27 9
-43 -2 -23 -8 -29 -35 -31 -23 -2 -34 2 -42 17 -25 47 35 97 68 57z m38 -182
c9 -23 -23 -44 -68 -44 -39 0 -65 20 -55 45 8 22 114 21 123 -1z"/>
<path d="M8244 6946 c-3 -8 -20 -13 -45 -12 -30 0 -45 -5 -55 -19 -18 -25 -18
-69 1 -85 14 -11 14 -15 -2 -32 -14 -15 -15 -23 -6 -38 10 -14 9 -19 -2 -24
-8 -3 -15 -17 -15 -31 0 -32 38 -49 97 -42 50 5 73 21 73 51 0 36 -16 48 -66
53 -27 2 -55 7 -63 9 -23 7 8 34 40 34 16 0 38 9 49 20 21 21 27 65 10 75 -15
10 -12 35 5 35 8 0 15 5 15 10 0 15 -30 12 -36 -4z m-15 -40 c7 -8 11 -27 9
-43 -2 -23 -8 -29 -35 -31 -23 -2 -34 2 -42 17 -25 47 35 97 68 57z m38 -182
c9 -23 -23 -44 -68 -44 -39 0 -65 20 -55 45 8 22 114 21 123 -1z"/>
<path d="M20084 6946 c-3 -8 -20 -13 -45 -12 -30 0 -45 -5 -55 -19 -18 -25
-18 -69 1 -85 14 -11 14 -15 -2 -32 -14 -15 -15 -23 -6 -38 10 -14 9 -19 -2
-24 -8 -3 -15 -17 -15 -31 0 -32 38 -49 97 -42 50 5 73 21 73 51 0 36 -16 48
-66 53 -27 2 -55 7 -63 9 -23 7 8 34 40 34 16 0 38 9 49 20 21 21 27 65 10 75
-15 10 -12 35 5 35 8 0 15 5 15 10 0 15 -30 12 -36 -4z m-15 -40 c7 -8 11 -27
9 -43 -2 -23 -8 -29 -35 -31 -23 -2 -34 2 -42 17 -25 47 35 97 68 57z m38
-182 c9 -23 -23 -44 -68 -44 -39 0 -65 20 -55 45 8 22 114 21 123 -1z"/>
<path d="M1614 6930 c-33 -13 -54 -50 -54 -96 0 -114 145 -130 166 -18 8 46
-16 101 -52 114 -29 12 -32 12 -60 0z m74 -38 c18 -23 15 -92 -5 -114 -20 -22
-56 -23 -78 -2 -11 12 -15 31 -13 67 2 43 7 54 27 63 27 14 50 9 69 -14z"/>
<path d="M1833 6925 c-13 -9 -23 -11 -23 -6 0 6 -7 11 -15 11 -12 0 -15 -17
-15 -95 0 -77 3 -95 15 -95 11 0 15 18 17 83 l3 82 40 0 40 0 3 -82 c2 -65 6
-83 17 -83 20 0 21 148 3 173 -19 24 -60 30 -85 12z"/>
<path d="M2801 6929 c-37 -15 -50 -39 -51 -92 0 -60 31 -97 82 -97 35 1 68 19
68 39 0 16 -15 14 -30 -4 -26 -31 -81 -12 -95 33 -6 21 -4 22 64 22 71 0 71 0
71 28 -1 31 -16 54 -47 70 -25 14 -30 14 -62 1z m57 -25 c12 -8 22 -24 22 -35
0 -16 -7 -19 -55 -19 -61 0 -67 9 -30 45 28 29 33 30 63 9z"/>
<path d="M7534 6930 c-33 -13 -54 -50 -54 -96 0 -114 145 -130 166 -18 8 46
-16 101 -52 114 -29 12 -32 12 -60 0z m74 -38 c18 -23 15 -92 -5 -114 -20 -22
-56 -23 -78 -2 -11 12 -15 31 -13 67 2 43 7 54 27 63 27 14 50 9 69 -14z"/>
<path d="M7753 6925 c-13 -9 -23 -11 -23 -6 0 6 -7 11 -15 11 -12 0 -15 -17
-15 -95 0 -77 3 -95 15 -95 11 0 15 18 17 83 l3 82 40 0 40 0 3 -82 c2 -65 6
-83 17 -83 20 0 21 148 3 173 -19 24 -60 30 -85 12z"/>
<path d="M8721 6929 c-37 -15 -50 -39 -51 -92 0 -60 31 -97 82 -97 35 1 68 19
68 39 0 16 -15 14 -30 -4 -26 -31 -81 -12 -95 33 -6 21 -4 22 64 22 71 0 71 0
71 28 -1 31 -16 54 -47 70 -25 14 -30 14 -62 1z m57 -25 c12 -8 22 -24 22 -35
0 -16 -7 -19 -55 -19 -61 0 -67 9 -30 45 28 29 33 30 63 9z"/>
<path d="M13644 6926 c-36 -16 -44 -32 -44 -92 0 -34 6 -51 25 -69 31 -31 84
-34 110 -5 25 28 14 34 -23 13 -43 -24 -78 -7 -88 42 -13 69 35 119 84 88 30
-18 47 -13 30 9 -18 24 -58 30 -94 14z"/>
<path d="M13832 6930 c-30 -13 -55 -73 -46 -114 9 -45 41 -76 79 -76 34 0 79
26 70 41 -4 5 -15 3 -28 -6 -50 -35 -97 -3 -97 65 0 61 37 89 85 64 34 -18 46
-18 39 0 -5 14 -47 36 -67 35 -7 0 -22 -4 -35 -9z"/>
<path d="M14030 6933 c-45 -17 -67 -67 -55 -123 9 -41 42 -70 80 -70 38 0 81
28 66 43 -6 6 -15 4 -26 -7 -32 -32 -95 -8 -95 37 0 14 11 17 71 17 l71 0 -7
33 c-11 53 -62 87 -105 70z m60 -33 c36 -36 26 -50 -35 -50 -48 0 -55 3 -55
19 0 20 35 51 57 51 7 0 22 -9 33 -20z"/>
<path d="M14213 6930 c-28 -11 -41 -56 -22 -75 8 -8 32 -20 54 -27 33 -11 40
-18 40 -38 0 -20 -6 -26 -28 -28 -17 -2 -36 3 -47 13 -13 11 -20 13 -25 5 -10
-17 25 -39 63 -40 38 0 75 32 70 63 -3 22 -34 42 -80 52 -21 4 -28 11 -28 29
0 29 21 39 56 26 48 -19 65 -3 19 18 -30 14 -42 14 -72 2z"/>
<path d="M14393 6930 c-26 -11 -38 -43 -24 -67 5 -10 29 -25 53 -33 35 -13 43
-20 43 -40 0 -20 -6 -26 -28 -28 -17 -2 -36 3 -47 13 -13 11 -20 13 -25 5 -10
-17 25 -39 63 -40 38 0 75 32 70 63 -3 22 -34 42 -80 52 -21 4 -28 11 -28 29
0 29 21 39 56 26 48 -19 65 -3 19 18 -30 14 -42 14 -72 2z"/>
<path d="M19374 6930 c-33 -13 -54 -50 -54 -96 0 -114 145 -130 166 -18 8 46
-16 101 -52 114 -29 12 -32 12 -60 0z m74 -38 c18 -23 15 -92 -5 -114 -20 -22
-56 -23 -78 -2 -11 12 -15 31 -13 67 2 43 7 54 27 63 27 14 50 9 69 -14z"/>
<path d="M19593 6925 c-13 -9 -23 -11 -23 -6 0 6 -7 11 -15 11 -12 0 -15 -17
-15 -95 0 -77 3 -95 15 -95 11 0 15 18 17 83 l3 82 40 0 40 0 3 -82 c2 -65 6
-83 17 -83 20 0 21 148 3 173 -19 24 -60 30 -85 12z"/>
<path d="M20561 6929 c-37 -15 -50 -39 -51 -92 0 -60 31 -97 82 -97 35 1 68
19 68 39 0 16 -15 14 -30 -4 -26 -31 -81 -12 -95 33 -6 21 -4 22 64 22 71 0
71 0 71 28 -1 31 -16 54 -47 70 -25 14 -30 14 -62 1z m57 -25 c12 -8 22 -24
22 -35 0 -16 -7 -19 -55 -19 -61 0 -67 9 -30 45 28 29 33 30 63 9z"/>
<path d="M2120 6835 c0 -57 4 -95 10 -95 6 0 10 38 10 95 0 57 -4 95 -10 95
-6 0 -10 -38 -10 -95z"/>
<path d="M2410 6852 c0 -86 14 -112 60 -112 13 0 32 7 42 17 17 15 18 15 18 0
0 -10 7 -17 15 -17 12 0 15 17 15 95 0 77 -3 95 -15 95 -11 0 -15 -18 -17 -77
-3 -75 -4 -78 -32 -88 -44 -15 -66 19 -66 101 0 36 -4 64 -10 64 -6 0 -10 -33
-10 -78z"/>
<path d="M2620 6835 c0 -76 3 -95 14 -95 11 0 15 19 18 79 4 94 1 111 -18 111
-11 0 -14 -19 -14 -95z"/>
<path d="M2670 6920 c-8 -5 -12 -11 -10 -14 8 -7 60 6 60 15 0 12 -31 11 -50
-1z"/>
<path d="M8040 6835 c0 -57 4 -95 10 -95 6 0 10 38 10 95 0 57 -4 95 -10 95
-6 0 -10 -38 -10 -95z"/>
<path d="M8330 6852 c0 -86 14 -112 60 -112 13 0 32 7 42 17 17 15 18 15 18 0
0 -10 7 -17 15 -17 12 0 15 17 15 95 0 77 -3 95 -15 95 -11 0 -15 -18 -17 -77
-3 -75 -4 -78 -32 -88 -44 -15 -66 19 -66 101 0 36 -4 64 -10 64 -6 0 -10 -33
-10 -78z"/>
<path d="M8540 6835 c0 -76 3 -95 14 -95 11 0 15 19 18 79 4 94 1 111 -18 111
-11 0 -14 -19 -14 -95z"/>
<path d="M8590 6920 c-8 -5 -12 -11 -10 -14 8 -7 60 6 60 15 0 12 -31 11 -50
-1z"/>
<path d="M12631 6913 c-8 -14 -10 -15 -11 -3 0 13 -1 13 -10 0 -6 -10 -10 -11
-10 -2 0 6 -5 12 -11 12 -6 0 -9 -6 -6 -14 3 -8 1 -17 -6 -20 -9 -5 -9 -7 0
-12 7 -3 11 -11 9 -17 -1 -7 -1 -8 2 -4 2 4 10 3 18 -4 11 -9 14 -8 15 2 1 8
2 21 3 29 0 9 10 15 23 14 18 0 20 3 12 18 -12 22 -15 22 -28 1z m-21 -33 c0
-5 -4 -10 -10 -10 -5 0 -10 5 -10 10 0 6 5 10 10 10 6 0 10 -4 10 -10z"/>
<path d="M13400 6851 c0 -59 4 -84 16 -95 20 -20 68 -21 84 -1 11 13 8 14 -17
9 -47 -9 -63 15 -63 97 0 39 -4 69 -10 69 -6 0 -10 -33 -10 -79z"/>
<path d="M13518 6853 c-4 -85 0 -113 13 -113 5 0 9 43 9 95 0 114 -17 127 -22
18z"/>
<path d="M19880 6835 c0 -57 4 -95 10 -95 6 0 10 38 10 95 0 57 -4 95 -10 95
-6 0 -10 -38 -10 -95z"/>
<path d="M20170 6852 c0 -86 14 -112 60 -112 13 0 32 7 42 17 17 15 18 15 18
0 0 -10 7 -17 15 -17 12 0 15 17 15 95 0 77 -3 95 -15 95 -11 0 -15 -18 -17
-77 -3 -75 -4 -78 -32 -88 -44 -15 -66 19 -66 101 0 36 -4 64 -10 64 -6 0 -10
-33 -10 -78z"/>
<path d="M20380 6835 c0 -76 3 -95 14 -95 11 0 15 19 18 79 4 94 1 111 -18
111 -11 0 -14 -19 -14 -95z"/>
<path d="M20430 6920 c-8 -5 -12 -11 -10 -14 8 -7 60 6 60 15 0 12 -31 11 -50
-1z"/>
<path d="M12800 6687 c0 -5 -9 -5 -20 -2 -12 4 -20 2 -20 -6 0 -8 10 -9 31 -5
17 3 35 6 40 6 5 0 9 4 9 9 0 6 -9 9 -20 8 -11 -1 -20 -5 -20 -10z"/>
<path d="M6178 5513 c12 -2 30 -2 40 0 9 3 -1 5 -23 4 -22 0 -30 -2 -17 -4z"/>
<path d="M8662 5513 l2427 -3 4 -33 c4 -31 4 -31 5 6 l2 37 -2432 -2 -2433 -3
2427 -2z"/>
<path d="M6142 5470 c0 -19 2 -27 5 -17 2 9 2 25 0 35 -3 9 -5 1 -5 -18z"/>
<path d="M6141 5414 c0 -11 3 -14 6 -6 3 7 2 16 -1 19 -3 4 -6 -2 -5 -13z"/>
<path d="M6198 5403 c7 -3 16 -2 19 1 4 3 -2 6 -13 5 -11 0 -14 -3 -6 -6z"/>
<path d="M6815 4855 c-5 -2 -22 -6 -37 -9 -34 -8 -93 -59 -116 -100 -15 -27
-17 -68 -17 -336 0 -168 3 -317 8 -332 9 -35 61 -94 101 -116 27 -15 71 -17
317 -20 317 -4 348 0 406 51 70 62 73 76 73 407 0 264 -2 299 -19 335 -23 51
-79 101 -128 114 -34 10 -562 15 -588 6z m620 -185 c13 -14 20 -34 20 -61 0
-77 -87 -117 -140 -65 -32 32 -40 68 -23 102 26 55 99 67 143 24z m-571 -119
c41 -27 55 -57 56 -119 0 -48 -4 -58 -34 -88 -28 -28 -41 -34 -77 -34 -87 0
-138 62 -126 152 12 88 109 136 181 89z m160 -71 c29 -11 34 -41 15 -84 -9
-19 -8 -29 5 -47 34 -50 4 -55 -36 -7 l-27 33 -1 -33 c0 -22 -4 -32 -12 -30
-19 6 -23 158 -6 169 17 11 31 11 62 -1z m417 -47 l44 -58 3 53 c2 37 7 52 18
52 11 0 14 -17 14 -85 0 -47 -4 -85 -9 -85 -6 0 -30 25 -55 55 l-44 55 -9 -52
c-12 -78 -28 -59 -31 37 -3 105 7 109 69 28z m-311 -38 c0 -69 -3 -85 -15 -85
-12 0 -15 16 -15 85 0 69 3 85 15 85 12 0 15 -16 15 -85z m170 75 c23 -12 40
-61 33 -92 -10 -41 -43 -68 -84 -68 -77 0 -116 93 -62 152 18 20 82 25 113 8z
m-117 -218 c10 -10 20 -34 23 -53 5 -28 1 -41 -21 -67 -32 -39 -78 -43 -119
-11 -22 17 -26 29 -26 68 0 48 13 70 50 84 24 10 73 -2 93 -21z"/>
<path d="M6757 4529 c-29 -17 -50 -68 -43 -107 10 -65 69 -99 131 -76 23 9 45
57 45 99 0 68 -77 117 -133 84z"/>
<path d="M6987 4454 c-15 -15 -7 -45 11 -42 9 2 17 12 17 22 0 20 -16 31 -28
20z"/>
<path d="M10374 4836 c-10 -26 4 -48 28 -44 17 2 23 10 23 28 0 18 -6 26 -23
28 -13 2 -25 -3 -28 -12z"/>
<path d="M10374 4696 c-10 -26 4 -48 28 -44 17 2 23 10 23 28 0 18 -6 26 -23
28 -13 2 -25 -3 -28 -12z"/>
<path d="M10374 4556 c-10 -26 4 -48 28 -44 17 2 23 10 23 28 0 18 -6 26 -23
28 -13 2 -25 -3 -28 -12z"/>
<path d="M7077 3523 c-4 -3 -7 -59 -7 -122 0 -89 4 -122 16 -139 20 -29 64
-30 64 -2 0 11 -7 20 -15 20 -13 0 -15 21 -15 125 0 115 -2 125 -18 125 -10 0
-22 -3 -25 -7z"/>
<path d="M7187 3523 c-13 -12 -7 -41 10 -47 21 -9 46 16 37 37 -6 17 -35 23
-47 10z"/>
<path d="M8447 3523 c-13 -12 -7 -41 9 -47 22 -9 34 1 34 30 0 17 -6 24 -18
24 -10 0 -22 -3 -25 -7z"/>
<path d="M9650 3385 l0 -145 25 0 c16 0 25 6 25 16 0 14 1 14 16 0 8 -9 31
-16 49 -16 26 0 39 6 52 27 24 37 24 125 -1 152 -25 28 -64 35 -92 16 l-24
-15 0 55 c0 52 -1 55 -25 55 l-25 0 0 -145z m124 3 c33 -46 13 -108 -33 -108
-33 0 -41 14 -41 70 0 57 45 80 74 38z"/>
<path d="M8094 3513 c-90 -18 -115 -192 -36 -253 28 -23 107 -27 132 -7 36 28
50 62 50 122 0 78 -24 120 -77 134 -21 6 -40 10 -43 10 -3 -1 -15 -4 -26 -6z
m80 -65 c24 -34 21 -123 -4 -148 -28 -28 -64 -25 -89 6 -33 42 -25 131 13 156
23 16 65 8 80 -14z"/>
<path d="M6650 3375 l0 -135 90 0 c89 0 90 0 90 25 0 24 -2 25 -66 25 l-65 0
3 33 c3 32 4 32 61 35 49 3 57 6 57 22 0 18 -7 20 -61 20 l-60 0 3 33 c3 32 3
32 66 35 54 3 62 6 62 22 0 18 -7 20 -90 20 l-90 0 0 -135z"/>
<path d="M9063 3488 c4 -13 18 -74 32 -135 26 -111 27 -113 55 -113 27 0 29 3
50 93 13 50 26 97 29 104 3 7 17 -35 30 -93 l24 -105 30 3 c29 3 30 5 58 118
35 143 36 152 7 148 -20 -3 -25 -14 -42 -101 -10 -54 -21 -95 -24 -93 -2 3
-15 47 -27 98 -21 90 -23 93 -52 96 l-30 3 -23 -101 c-12 -55 -25 -99 -27 -96
-5 4 -12 34 -33 139 -10 51 -14 57 -37 57 -21 0 -24 -4 -20 -22z"/>
<path d="M9960 3490 c0 -13 7 -20 20 -20 19 0 20 -7 20 -95 0 -88 -1 -95 -20
-95 -13 0 -20 -7 -20 -20 0 -18 7 -20 65 -20 58 0 65 2 65 20 0 13 -7 20 -20
20 -19 0 -20 7 -20 95 0 88 1 95 20 95 13 0 20 7 20 20 0 18 -7 20 -65 20 -58
0 -65 -2 -65 -20z"/>
<path d="M10132 3375 l-1 -135 65 0 c39 0 77 6 95 16 53 27 75 117 45 188 -22
52 -50 66 -132 66 l-72 0 0 -135z m139 76 c20 -16 24 -29 24 -74 0 -67 -15
-87 -66 -87 l-39 0 0 90 0 90 29 0 c16 0 39 -9 52 -19z"/>
<path d="M10400 3375 l0 -135 90 0 c89 0 90 0 90 25 0 24 -2 25 -66 25 l-65 0
3 33 c3 32 4 32 61 35 49 3 57 6 57 22 0 18 -7 20 -61 20 l-60 0 3 33 c3 32 3
32 66 35 54 3 62 6 62 22 0 18 -7 20 -90 20 l-90 0 0 -135z"/>
<path d="M6913 3434 c-56 -28 -65 -123 -17 -175 24 -27 95 -26 119 1 26 28 6
49 -28 31 -36 -19 -60 -10 -70 25 -17 59 30 116 66 80 17 -17 47 -11 47 9 0
36 -70 53 -117 29z"/>
<path d="M7363 3435 c-13 -9 -23 -11 -23 -6 0 6 -11 11 -25 11 l-25 0 0 -140
0 -140 25 0 c24 0 25 3 25 58 1 43 3 53 11 40 12 -21 67 -24 93 -5 36 26 39
139 4 173 -22 22 -61 26 -85 9z m46 -39 c7 -8 11 -36 9 -63 -3 -48 -3 -48 -38
-48 -35 0 -35 0 -38 48 -3 52 9 77 38 77 10 0 23 -6 29 -14z"/>
<path d="M7550 3437 c-13 -7 -29 -25 -34 -39 -12 -35 12 -65 61 -74 36 -7 55
-31 33 -44 -13 -8 -48 -2 -66 12 -7 5 -16 2 -24 -7 -34 -41 91 -64 131 -24 42
42 13 88 -64 104 -20 4 -27 11 -25 23 3 16 21 19 73 10 30 -5 30 26 0 40 -33
15 -54 15 -85 -1z"/>
<path d="M7763 3443 c-69 -13 -85 -143 -24 -190 34 -26 131 -10 131 22 0 20
-20 29 -33 16 -25 -25 -87 -7 -87 26 0 9 18 13 65 13 l65 0 0 31 c0 20 -10 40
-29 60 -29 28 -41 31 -88 22z m55 -45 c24 -24 13 -38 -28 -38 -26 0 -40 5 -40
13 0 18 21 37 40 37 9 0 21 -5 28 -12z"/>
<path d="M8595 3441 c-67 -28 -81 -145 -22 -186 26 -18 86 -19 108 -2 61 47
47 162 -22 186 -36 13 -37 13 -64 2z m56 -41 c14 -8 19 -21 19 -50 0 -56 -8
-70 -41 -70 -23 0 -32 6 -40 27 -11 28 -5 69 13 90 13 16 23 16 49 3z"/>
<path d="M8830 3430 c-16 -16 -20 -17 -20 -5 0 9 -9 15 -25 15 l-25 0 0 -100
0 -100 25 0 c24 0 25 2 25 75 0 71 2 76 25 87 38 17 49 -1 53 -87 4 -66 7 -75
23 -75 17 0 19 8 19 85 0 72 -3 88 -20 105 -11 11 -29 20 -40 20 -11 0 -29 -9
-40 -20z"/>
<path d="M9485 3441 c-67 -28 -81 -145 -22 -186 47 -33 158 -7 127 30 -9 11
-16 12 -26 4 -22 -18 -76 -7 -85 19 -8 21 -7 22 61 22 64 0 70 2 70 20 0 33
-26 75 -55 88 -30 14 -42 14 -70 3z m65 -50 c15 -29 14 -31 -35 -31 -38 0 -43
2 -38 18 14 36 56 44 73 13z"/>
<path d="M7180 3340 l0 -100 25 0 25 0 0 100 0 100 -25 0 -25 0 0 -100z"/>
<path d="M8290 3340 c0 -100 0 -100 25 -100 23 0 24 3 27 73 3 72 3 72 36 82
21 6 32 15 32 27 0 23 -28 23 -52 1 -17 -15 -18 -15 -18 0 0 11 -8 17 -25 17
l-25 0 0 -100z"/>
<path d="M8440 3340 l0 -100 25 0 25 0 0 100 0 100 -25 0 -25 0 0 -100z"/>
<path d="M7942 1228 c-7 -7 -12 -25 -12 -40 0 -16 -7 -31 -15 -34 -8 -4 -15
-10 -15 -15 0 -5 7 -9 15 -9 12 0 15 -16 15 -85 0 -50 4 -85 10 -85 6 0 10 35
10 85 0 84 0 85 25 85 31 0 33 17 3 22 -18 2 -23 10 -23 33 0 23 5 31 23 33
12 2 22 8 22 13 0 13 -44 11 -58 -3z"/>
<path d="M8035 1231 c-7 -12 12 -24 25 -16 11 7 4 25 -10 25 -5 0 -11 -4 -15
-9z"/>
<path d="M9010 1184 c0 -55 0 -55 -22 -40 -12 9 -30 16 -39 16 -29 0 -68 -39
-75 -75 -7 -42 11 -102 36 -115 27 -15 66 -12 80 5 11 13 8 14 -19 9 -44 -9
-71 17 -71 68 0 57 14 78 54 78 45 0 58 -19 56 -82 -3 -77 -2 -88 15 -88 13 0
15 22 15 140 0 118 -2 140 -15 140 -12 0 -15 -13 -15 -56z"/>
<path d="M7313 1220 c-76 -32 -86 -211 -14 -250 34 -18 88 -12 117 13 16 14
24 29 20 36 -5 8 -16 4 -38 -14 -37 -31 -62 -32 -93 0 -21 20 -25 33 -25 88 0
53 4 67 23 85 29 28 71 28 98 1 13 -13 25 -17 30 -12 13 13 -31 52 -66 58 -17
2 -40 0 -52 -5z"/>
<path d="M6915 1120 l-100 -100 -56 56 c-35 35 -62 54 -69 49 -8 -5 10 -30 56
-76 l69 -69 107 107 c96 96 124 133 100 133 -4 0 -52 -45 -107 -100z"/>
<path d="M8244 1166 c-3 -8 -20 -13 -45 -12 -30 0 -45 -5 -55 -19 -18 -25 -18
-69 1 -85 14 -11 14 -15 -2 -32 -14 -15 -15 -23 -6 -38 10 -14 9 -19 -2 -24
-8 -3 -15 -17 -15 -31 0 -32 38 -49 97 -42 50 5 73 21 73 51 0 36 -16 48 -66
53 -27 2 -55 7 -63 9 -23 7 8 34 40 34 16 0 38 9 49 20 21 21 27 65 10 75 -15
10 -12 35 5 35 8 0 15 5 15 10 0 15 -30 12 -36 -4z m-15 -40 c7 -8 11 -27 9
-43 -2 -23 -8 -29 -35 -31 -23 -2 -34 2 -42 17 -25 47 35 97 68 57z m38 -182
c9 -23 -23 -44 -68 -44 -39 0 -65 20 -55 45 8 22 114 21 123 -1z"/>
<path d="M7534 1150 c-33 -13 -54 -50 -54 -96 0 -114 145 -130 166 -18 8 46
-16 101 -52 114 -29 12 -32 12 -60 0z m74 -38 c18 -23 15 -92 -5 -114 -20 -22
-56 -23 -78 -2 -11 12 -15 31 -13 67 2 43 7 54 27 63 27 14 50 9 69 -14z"/>
<path d="M7753 1145 c-13 -9 -23 -11 -23 -6 0 6 -7 11 -15 11 -12 0 -15 -17
-15 -95 0 -77 3 -95 15 -95 11 0 15 18 17 83 l3 82 40 0 40 0 3 -82 c2 -65 6
-83 17 -83 20 0 21 148 3 173 -19 24 -60 30 -85 12z"/>
<path d="M8721 1149 c-37 -15 -50 -39 -51 -92 0 -60 31 -97 82 -97 35 1 68 19
68 39 0 16 -15 14 -30 -4 -26 -31 -81 -12 -95 33 -6 21 -4 22 64 22 68 0 71 1
71 24 0 38 -10 56 -41 71 -32 17 -35 17 -68 4z m57 -25 c12 -8 22 -24 22 -35
0 -16 -7 -19 -55 -19 -61 0 -67 9 -30 45 28 29 33 30 63 9z"/>
<path d="M8040 1055 c0 -57 4 -95 10 -95 6 0 10 38 10 95 0 57 -4 95 -10 95
-6 0 -10 -38 -10 -95z"/>
<path d="M8330 1072 c0 -86 14 -112 60 -112 13 0 32 7 42 17 17 15 18 15 18 0
0 -10 7 -17 15 -17 12 0 15 17 15 95 0 77 -3 95 -15 95 -11 0 -15 -18 -17 -77
-3 -75 -4 -78 -32 -88 -44 -15 -66 19 -66 101 0 36 -4 64 -10 64 -6 0 -10 -33
-10 -78z"/>
<path d="M8540 1055 c0 -76 3 -95 14 -95 11 0 15 19 18 79 4 94 1 111 -18 111
-11 0 -14 -19 -14 -95z"/>
<path d="M8590 1140 c-8 -5 -12 -11 -10 -14 8 -7 60 6 60 15 0 12 -31 11 -50
-1z"/>
</g>
</svg>
